<svg id="svg" version="1.1" xmlns="http://www.w3.org/2000/svg" style="display: block;" wfd-invisible="true" viewBox="0 0 1080 1080"><path d="M0 0 C356.4 0 712.8 0 1080 0 C1080 356.4 1080 712.8 1080 1080 C723.6 1080 367.2 1080 0 1080 C0 723.6 0 367.2 0 0 Z " transform="translate(0,0)" style="fill: #242526;"/><path d="M0 0 C0.94504395 0.13422363 1.89008789 0.26844727 2.86376953 0.40673828 C15.6633361 2.25928013 28.14805858 4.74977607 40.58007812 8.31152344 C43.18869169 9.05368347 45.80444122 9.76616911 48.421875 10.4765625 C71.01195008 16.67463339 71.01195008 16.67463339 79 22 C80.216875 22.37125 81.43375 22.7425 82.6875 23.125 C114.89689973 33.53030933 146.28992437 57.47603629 171 80 C171.68787598 80.62616211 172.37575195 81.25232422 173.08447266 81.89746094 C175.23106438 83.86058744 177.36791039 85.83363812 179.5 87.8125 C180.14670654 88.41054443 180.79341309 89.00858887 181.4597168 89.62475586 C185.94811643 93.84095503 190.00027939 98.32237071 194 103 C194.94852894 104.07207815 195.89893494 105.14249965 196.8515625 106.2109375 C209.58084062 120.65364136 220.38822686 136.33757395 230 153 C230.48855469 153.84546387 230.97710938 154.69092773 231.48046875 155.56201172 C247.53150712 183.58427761 259.06016668 213.44232176 266 245 C266.42539063 246.86398437 266.42539063 246.86398437 266.859375 248.765625 C278.17397629 303.02952915 274.51144429 366.65363784 253 418 C252.25679804 419.84073657 251.51464965 421.68189879 250.7734375 423.5234375 C239.81090384 450.40529771 226.53576983 474.82053414 209 498 C205.04 503.28 201.08 508.56 197 514 C224.06 514 251.12 514 279 514 C274.53012048 522.93975904 274.53012048 522.93975904 271.25 527.25 C267.71968015 531.98960068 264.4136424 536.83178064 261.15625 541.76171875 C258.86748452 545.19901328 256.53359729 548.60176185 254.1875 552 C252.73957501 554.10425362 251.29273587 556.20925023 249.84619141 558.31445312 C248.45374505 560.33996356 247.06000212 562.36455891 245.66552734 564.38867188 C243.4995283 567.5342865 241.34055648 570.68464665 239.18496704 573.83740234 C238.31467202 575.10806349 237.44226813 576.37728292 236.56771851 577.64501953 C235.32864699 579.4418989 234.0971576 581.24375789 232.8671875 583.046875 C232.14644043 584.09713867 231.42569336 585.14740234 230.68310547 586.22949219 C228.71498002 589.42457771 228.71498002 589.42457771 228 593 C229.52111125 595.71890938 231.08362159 598.15407915 232.875 600.6875 C233.67780396 601.85587402 233.67780396 601.85587402 234.49682617 603.04785156 C235.68200698 604.77205575 236.87231332 606.49274454 238.06689453 608.21044922 C240.79615746 612.148888 243.47955702 616.11791329 246.16699219 620.08496094 C249.05221966 624.3412296 251.94887036 628.58967084 254.84521484 632.83837891 C256.95692259 635.93679442 259.06660761 639.0365778 261.17578125 642.13671875 C262.49212612 644.07035429 263.80852971 646.00394985 265.125 647.9375 C265.71579346 648.80600586 266.30658691 649.67451172 266.9152832 650.56933594 C267.48206787 651.40110352 268.04885254 652.23287109 268.6328125 653.08984375 C269.17969727 653.89276855 269.72658203 654.69569336 270.29003906 655.52294922 C271.50634717 657.28489411 272.73928968 659.03540596 273.98339844 660.77783203 C274.62567383 661.67743652 275.26794922 662.57704102 275.9296875 663.50390625 C276.51733887 664.31802979 277.10499023 665.13215332 277.71044922 665.97094727 C279 668 279 668 279 670 C28.86 670 -221.28 670 -479 670 C-477.56140061 666.40350152 -476.53461833 664.06600321 -474.41796875 661.0234375 C-473.90508301 660.28053467 -473.39219727 659.53763184 -472.86376953 658.7722168 C-472.31060059 657.98113525 -471.75743164 657.19005371 -471.1875 656.375 C-470.00118297 654.66023865 -468.81498835 652.9453926 -467.62890625 651.23046875 C-466.72035889 649.92215088 -466.72035889 649.92215088 -465.79345703 648.58740234 C-463.05254614 644.63311788 -460.33887391 640.66036591 -457.625 636.6875 C-456.55082386 635.11715835 -455.47660429 633.54684641 -454.40234375 631.9765625 C-451.97737644 628.43002107 -449.55283929 624.88318591 -447.12890625 621.3359375 C-446.47639893 620.38106445 -445.8238916 619.42619141 -445.15161133 618.44238281 C-443.23650431 615.63435269 -441.32909287 612.82120421 -439.421875 610.0078125 C-437.38832688 607.01354181 -435.32920063 604.04641247 -433.203125 601.1171875 C-432.08164062 599.54324219 -432.08164062 599.54324219 -430.9375 597.9375 C-430.30714844 597.08027344 -429.67679688 596.22304688 -429.02734375 595.33984375 C-427.71321236 593.03992239 -427.71321236 593.03992239 -428.70947266 590.7019043 C-430.12452239 587.73929449 -431.77183501 585.1428554 -433.62109375 582.4296875 C-434.3363623 581.37491211 -435.05163086 580.32013672 -435.78857422 579.23339844 C-436.51834473 578.16637695 -437.24811523 577.09935547 -438 576 C-439.32431536 574.04433625 -440.64853587 572.08860827 -441.97265625 570.1328125 C-443.33528445 568.12976392 -444.69858505 566.12717262 -446.0625 564.125 C-447.15896851 562.51467896 -447.15896851 562.51467896 -448.27758789 560.87182617 C-449.40822431 559.21135445 -450.53895116 557.55094468 -451.66996765 555.89073181 C-454.14561838 552.25645463 -456.616826 548.61919103 -459.0859375 544.98046875 C-465.02934254 536.23033192 -470.97481873 527.4915295 -477.20874023 518.94458008 C-480 515.10019662 -480 515.10019662 -480 514 C-466.8 514 -453.6 514 -440 514 C-440 512.02 -440 510.04 -440 508 C-439.1953125 504.9296875 -439.1953125 504.9296875 -438.125 501.875 C-437.77695312 500.86179687 -437.42890625 499.84859375 -437.0703125 498.8046875 C-436.16828486 496.44098004 -435.18519633 494.23158589 -434 492 C-434.556875 491.896875 -435.11375 491.79375 -435.6875 491.6875 C-438.4769101 490.85821592 -440.6139064 489.65700944 -443 488 C-443 487.34 -443 486.68 -443 486 C-443.59208252 485.87415527 -444.18416504 485.74831055 -444.79418945 485.61865234 C-448.28907026 484.63846109 -451.15915579 482.56926768 -454.1875 480.625 C-454.87714844 480.18671875 -455.56679688 479.7484375 -456.27734375 479.296875 C-457.74947156 478.35958499 -459.21996456 477.41972324 -460.68896484 476.47753906 C-463.06258041 474.95998979 -465.44648747 473.4596531 -467.83203125 471.9609375 C-469.38840514 470.97456446 -470.94440495 469.98760088 -472.5 469 C-473.24789795 468.53158691 -473.9957959 468.06317383 -474.76635742 467.58056641 C-476.5463062 466.44051224 -478.27881978 465.22697996 -480 464 C-480 463.34 -480 462.68 -480 462 C-478.14991333 462.12846313 -478.14991333 462.12846313 -476.26245117 462.25952148 C-471.59003367 462.58353203 -466.9174738 462.9054505 -462.24487305 463.22680664 C-460.24060321 463.36492729 -458.23636997 463.50358016 -456.23217773 463.64282227 C-455.26803955 463.70977295 -454.30390137 463.77672363 -453.31054688 463.84570312 C-451.86574448 463.94628777 -451.86574448 463.94628777 -450.39175415 464.04890442 C-448.44875339 464.18050918 -446.50535605 464.30638262 -444.56161499 464.42655945 C-439.88294639 464.71657748 -435.23333286 465.0661571 -430.57470703 465.59106445 C-422.27370674 466.6960895 -422.27370674 466.6960895 -414.38745117 464.67602539 C-412.35017768 462.68489449 -410.96924883 460.74938355 -409.5 458.3125 C-408.38463357 456.73216611 -407.26611621 455.1540516 -406.14453125 453.578125 C-405.61811035 452.79630859 -405.09168945 452.01449219 -404.54931641 451.20898438 C-402.3490162 448.0718403 -399.83272156 445.32561052 -397.1875 442.5625 C-396.39730469 441.71816406 -395.60710937 440.87382813 -394.79296875 440.00390625 C-394.14775269 439.31735962 -394.14775269 439.31735962 -393.48950195 438.61694336 C-392.3797484 437.41223958 -391.28718715 436.19165454 -390.20385742 434.96313477 C-383.72666746 427.63262599 -376.86924746 420.71681051 -369.94311523 413.81274414 C-367.93422136 411.80923014 -365.93075611 409.80039848 -363.92773438 407.79101562 C-352.30937517 396.16734391 -352.30937517 396.16734391 -346.50561523 391.29736328 C-344.95329739 389.95975715 -343.54308469 388.54058934 -342.125 387.0625 C-340 385 -340 385 -338 385 C-338 384.34 -338 383.68 -338 383 C-336.3214487 381.50370821 -334.58041102 380.07707339 -332.8125 378.6875 C-329.7833166 376.29902741 -326.96472235 373.9640178 -324.26171875 371.20703125 C-322 369 -322 369 -320 369 C-322.48842697 366.26732307 -325.26141772 364.42832984 -328.375 362.453125 C-329.44363281 361.7725 -330.51226562 361.091875 -331.61328125 360.390625 C-332.74212497 359.67698442 -333.87103148 358.96344313 -335 358.25 C-336.08667969 357.5590625 -337.17335938 356.868125 -338.29296875 356.15625 C-339.37191406 355.47046875 -340.45085937 354.7846875 -341.5625 354.078125 C-342.62984375 353.39943359 -343.6971875 352.72074219 -344.796875 352.02148438 C-346.94488028 350.66588348 -349.10130579 349.32354005 -351.265625 347.99414062 C-352.27109375 347.37216797 -353.2765625 346.75019531 -354.3125 346.109375 C-355.21613281 345.55733398 -356.11976563 345.00529297 -357.05078125 344.43652344 C-358.01564453 343.72544434 -358.01564453 343.72544434 -359 343 C-359 342.34 -359 341.68 -359 341 C-359.52207031 340.91878906 -360.04414063 340.83757812 -360.58203125 340.75390625 C-363.96004498 339.70066449 -366.73359167 337.83577023 -369.6875 335.9375 C-370.71605103 335.28527466 -370.71605103 335.28527466 -371.76538086 334.61987305 C-374.18056458 333.08556744 -376.59013323 331.54264199 -379 330 C-380.93472444 328.76795998 -382.86962938 327.53620337 -384.8046875 326.3046875 C-396.0105315 319.16192629 -407.17478887 311.95804341 -418.28808594 304.67211914 C-423.47547699 301.27694023 -428.68503632 297.92131947 -433.92578125 294.609375 C-435.0859554 293.87437721 -436.2461118 293.13935141 -437.40625 292.40429688 C-439.63519698 290.99248237 -441.86876093 289.58905381 -444.10546875 288.18945312 C-445.10835937 287.55458984 -446.11125 286.91972656 -447.14453125 286.265625 C-448.03503174 285.70649414 -448.92553223 285.14736328 -449.84301758 284.57128906 C-452 283 -452 283 -454 280 C-431.30005692 280.91799868 -408.64894168 282.21154204 -386 284 C-384.91519348 284.08358765 -383.83038696 284.16717529 -382.71270752 284.2532959 C-379.59949362 284.49479509 -376.48719179 284.74570121 -373.375 285 C-372.45778168 285.07083801 -371.54056335 285.14167603 -370.59555054 285.21466064 C-365.59923618 285.63725609 -360.87766808 286.41623492 -356.00152588 287.5743103 C-353.35228657 288.13775737 -350.82216254 288.23944739 -348.1171875 288.23828125 C-346.41260376 288.25761719 -346.41260376 288.25761719 -344.67358398 288.27734375 C-342.79328491 288.29474609 -342.79328491 288.29474609 -340.875 288.3125 C-316.64673999 288.71311926 -292.4836333 291.15045137 -268.34811401 293.16368103 C-260.56249 293.80786609 -252.78016986 294.37657076 -244.97924805 294.79589844 C-242.08555911 294.99413854 -239.24805607 295.36074724 -236.375 295.75 C-229.0999037 295.66326264 -224.07017635 290.10566847 -218.87109375 285.59082031 C-215.7860515 282.96789034 -212.55744775 280.54534264 -209.3125 278.125 C-208.65000244 277.62967773 -207.98750488 277.13435547 -207.30493164 276.62402344 C-195.71492228 268.02084544 -183.80185689 259.94930415 -171.4375 252.5 C-170.64118164 252.01982422 -169.84486328 251.53964844 -169.02441406 251.04492188 C-161.20694768 246.40727599 -153.28048497 242.24732658 -144.6875 239.25 C-142.96080078 238.63898438 -142.96080078 238.63898438 -141.19921875 238.015625 C-132.68872548 235.31388111 -122.25203974 234.09954518 -113.8984375 237.90625 C-105.16216757 242.93949194 -99.22945227 249.31164318 -96 259 C-95.29122787 267.93517652 -95.87987876 275.03098808 -100 283 C-100.40089844 283.84691406 -100.80179688 284.69382812 -101.21484375 285.56640625 C-108.42088024 299.91581804 -119.9629009 311.55017049 -131 323 C-131.85722656 323.89847656 -132.71445312 324.79695313 -133.59765625 325.72265625 C-137.49779647 329.73604918 -137.49779647 329.73604918 -139 331 C-139.66 331 -140.32 331 -141 331 C-141.33 331.99 -141.66 332.98 -142 334 C-143.77734375 335.82421875 -143.77734375 335.82421875 -145.9375 337.6875 C-147.00291016 338.62142578 -147.00291016 338.62142578 -148.08984375 339.57421875 C-150 341 -150 341 -152 341 C-152 341.66 -152 342.32 -152 343 C-153.59334239 344.43549726 -155.25251082 345.79827327 -156.9375 347.125 C-161.52788347 350.78425918 -165.91967522 354.57467159 -170.22265625 358.56640625 C-172 360 -172 360 -174 360 C-174.05063567 360.77115237 -174.10127134 361.54230474 -174.15344143 362.33682537 C-174.74776311 370.74917182 -175.71422906 379.06544129 -176.85766602 387.41918945 C-177.04532105 388.81020904 -177.23264849 390.20127285 -177.41967773 391.59237671 C-177.92249734 395.32541151 -178.42982935 399.05781998 -178.93804669 402.79012322 C-179.47056613 406.70682223 -179.9988324 410.6240949 -180.52757263 414.54130554 C-181.52684124 421.93967237 -182.52986915 429.3375243 -183.53428835 436.73519343 C-184.67871201 445.16540784 -185.81888325 453.5961957 -186.95871842 462.02703154 C-189.30112057 479.35199223 -191.64935511 496.67615562 -194 514 C-181.79 514 -169.58 514 -157 514 C-155.44170757 502.31910751 -155.44170757 502.31910751 -153.88916016 490.63745117 C-152.78598631 482.38527602 -151.62849075 474.16894261 -150 466 C-149.01 466.33 -148.02 466.66 -147 467 C-146.3125 469.0625 -146.3125 469.0625 -146 471 C-140.96384345 469.5036533 -135.93606315 467.98800252 -130.9296875 466.39453125 C-129.24479167 465.8671875 -127.55989583 465.33984375 -125.875 464.8125 C-125.03324219 464.53986328 -124.19148438 464.26722656 -123.32421875 463.98632812 C-118.00587974 462.3413535 -113.56653122 461.71074607 -108 462 C-108 461.34 -108 460.68 -108 460 C-91.75772042 456.54419583 -76.87316347 455 -60 455 C-60 414.74 -60 374.48 -60 333 C-69.9 333 -79.8 333 -90 333 C-88.43983127 329.87966253 -86.76943895 326.97928427 -84.92797852 324.02563477 C-78.71926292 314.00804909 -73.33199139 303.65995696 -71 292 C-67.37 292 -63.74 292 -60 292 C-60 253.06 -60 214.12 -60 174 C-63.96 174 -67.92 174 -72 174 C-75.59433914 173.67563924 -79.11878041 173.30398689 -82.6875 172.8125 C-84.13878296 172.61720703 -84.13878296 172.61720703 -85.61938477 172.41796875 C-93.26979801 171.34104903 -100.85717866 169.98866078 -108.4375 168.5 C-109.47285889 168.29866455 -110.50821777 168.0973291 -111.57495117 167.88989258 C-116.53583759 166.87790585 -121.20441015 165.69804887 -125.90258789 163.81201172 C-130.35520147 162.0881853 -134.94676295 160.74360272 -139.5 159.3125 C-140.51320313 158.99216797 -141.52640625 158.67183594 -142.5703125 158.34179688 C-145.04628208 157.55929706 -147.52284703 156.77874378 -150 156 C-150.29044189 156.7415332 -150.58088379 157.48306641 -150.88012695 158.24707031 C-151.82221423 160.56295786 -152.82451237 162.80032413 -153.91796875 165.046875 C-160.03368619 177.71340415 -165.78143805 190.36792727 -170.29296875 203.703125 C-170.88851562 205.46257446 -170.88851562 205.46257446 -171.49609375 207.25756836 C-172.27787309 209.59025052 -173.04782396 211.92693727 -173.8046875 214.26782227 C-174.34029297 215.87741821 -174.34029297 215.87741821 -174.88671875 217.51953125 C-175.19826904 218.47964111 -175.50981934 219.43975098 -175.83081055 220.42895508 C-178.3199172 225.9024949 -182.82240056 228.17972872 -187.9375 230.875 C-197.53836475 236.09553364 -206.51517137 242.19990974 -215.54638672 248.33740234 C-219.34918251 250.91422218 -223.17390769 253.45794774 -227 256 C-226.44176869 248.2066961 -225.03393865 240.73878308 -223.3125 233.125 C-223.04703369 231.94260742 -222.78156738 230.76021484 -222.50805664 229.54199219 C-220.13705584 219.20266773 -217.26374302 209.08875258 -214 199 C-213.77957031 198.30455078 -213.55914062 197.60910156 -213.33203125 196.89257812 C-209.27193775 184.08482864 -204.03794829 171.89041855 -198.4375 159.6875 C-197.73463867 158.1396582 -197.73463867 158.1396582 -197.01757812 156.56054688 C-194.56651172 151.20933756 -191.96782159 146.07993261 -189 141 C-188.23959428 138.73014106 -188.23959428 138.73014106 -188 137 C-189.08861328 136.83177734 -189.08861328 136.83177734 -190.19921875 136.66015625 C-193.12563993 135.97038613 -195.22287809 134.94489186 -197.8125 133.4375 C-198.60269531 132.98246094 -199.39289063 132.52742187 -200.20703125 132.05859375 C-200.79871094 131.70925781 -201.39039063 131.35992187 -202 131 C-202 130.34 -202 129.68 -202 129 C-202.82177734 128.85498047 -202.82177734 128.85498047 -203.66015625 128.70703125 C-206.61949311 127.81280759 -208.84427275 126.36716314 -211.4375 124.6875 C-212.36433594 124.09324219 -213.29117187 123.49898438 -214.24609375 122.88671875 C-217 121 -217 121 -219.59765625 118.70703125 C-221.78225211 116.81434465 -221.78225211 116.81434465 -224.01171875 116.96484375 C-231.51885825 120.87327591 -237.6237947 129.52290177 -243 136 C-243.43038574 136.5165918 -243.86077148 137.03318359 -244.30419922 137.56542969 C-264.17463587 161.53376539 -281.94699849 189.79338952 -291 219.74609375 C-291.7467727 222.1760221 -292.55206086 224.49347201 -293.46484375 226.859375 C-295.08402451 231.11290486 -296.35821469 235.42562953 -297.5625 239.8125 C-297.8867395 240.98401611 -297.8867395 240.98401611 -298.2175293 242.17919922 C-299.81626649 248.06697919 -301.10870766 253.96049668 -302 260 C-303.77074917 260.02705729 -305.54161711 260.04642195 -307.3125 260.0625 C-308.29863281 260.07410156 -309.28476562 260.08570313 -310.30078125 260.09765625 C-313 260 -313 260 -316 259 C-318.28161529 258.78092893 -320.56793753 258.60962421 -322.85546875 258.46484375 C-323.84792351 258.40037804 -323.84792351 258.40037804 -324.86042786 258.33460999 C-326.9692317 258.19849335 -329.07833734 258.06792653 -331.1875 257.9375 C-332.61916404 257.84606899 -334.05080503 257.75427636 -335.48242188 257.66210938 C-338.98802377 257.43721291 -342.49391758 257.21729171 -346 257 C-346.12092356 250.59449219 -345.13124332 245.12678181 -343.625 238.9375 C-343.36533447 237.86346924 -343.10566895 236.78943848 -342.83813477 235.68286133 C-340.58830169 226.7187527 -337.86442943 217.94837254 -334.9375 209.1875 C-334.5264502 207.95572021 -334.11540039 206.72394043 -333.69189453 205.45483398 C-316.51351198 155.06468396 -283.81780704 105.53883001 -241.75 72.1953125 C-238.93542965 69.94845379 -236.22510985 67.60419212 -233.5 65.25 C-225.45063671 58.52998539 -216.74129588 52.77307382 -208 47 C-206.95714844 46.30261719 -205.91429687 45.60523438 -204.83984375 44.88671875 C-179.94144501 28.89283676 -152.35137192 17.23254123 -124 9 C-122.76765625 8.63777344 -121.5353125 8.27554688 -120.265625 7.90234375 C-117.63263995 7.17480841 -115.05734016 6.56010727 -112.375 6.0625 C-108.57097545 5.33779775 -104.81765461 4.48314396 -101.0546875 3.5703125 C-68.70601173 -3.89704107 -32.82489883 -4.86657704 0 0 Z " transform="translate(640,230)" style="fill: #FBFB24;"/><path d="M0 0 C5.50910236 4.47018859 9.13848839 10.22796516 11.375 16.9375 C12.08377213 25.87267652 11.49512124 32.96848808 7.375 40.9375 C6.97410156 41.78441406 6.57320312 42.63132812 6.16015625 43.50390625 C-1.04588024 57.85331804 -12.5879009 69.48767049 -23.625 80.9375 C-24.91083984 82.28521484 -24.91083984 82.28521484 -26.22265625 83.66015625 C-30.12279647 87.67354918 -30.12279647 87.67354918 -31.625 88.9375 C-32.285 88.9375 -32.945 88.9375 -33.625 88.9375 C-33.955 89.9275 -34.285 90.9175 -34.625 91.9375 C-36.40234375 93.76171875 -36.40234375 93.76171875 -38.5625 95.625 C-39.62791016 96.55892578 -39.62791016 96.55892578 -40.71484375 97.51171875 C-42.625 98.9375 -42.625 98.9375 -44.625 98.9375 C-44.625 99.5975 -44.625 100.2575 -44.625 100.9375 C-46.21834239 102.37299726 -47.87751082 103.73577327 -49.5625 105.0625 C-54.15288347 108.72175918 -58.54467522 112.51217159 -62.84765625 116.50390625 C-64.625 117.9375 -64.625 117.9375 -66.625 117.9375 C-66.67563567 118.70865237 -66.72627134 119.47980474 -66.77844143 120.27432537 C-67.37276311 128.68667182 -68.33922906 137.00294129 -69.48266602 145.35668945 C-69.67032105 146.74770904 -69.85764849 148.13877285 -70.04467773 149.52987671 C-70.54749734 153.26291151 -71.05482935 156.99531998 -71.56304669 160.72762322 C-72.09556613 164.64432223 -72.6238324 168.5615949 -73.15257263 172.47880554 C-74.15184124 179.87717237 -75.15486915 187.2750243 -76.15928835 194.67269343 C-77.30371201 203.10290784 -78.44388325 211.5336957 -79.58371842 219.96453154 C-81.92612057 237.28949223 -84.27435511 254.61365562 -86.625 271.9375 C-74.415 271.9375 -62.205 271.9375 -49.625 271.9375 C-49.295 271.2775 -48.965 270.6175 -48.625 269.9375 C-48.625 270.5975 -48.625 271.2575 -48.625 271.9375 C-35.095 271.9375 -21.565 271.9375 -7.625 271.9375 C-9.275 270.2875 -10.925 268.6375 -12.625 266.9375 C-12.625 265.9475 -12.625 264.9575 -12.625 263.9375 C-2.48931526 261.08171816 7.63292157 258.56019404 18 256.6875 C18.8986377 256.52475586 19.79727539 256.36201172 20.72314453 256.19433594 C29.67947913 254.62701898 38.27969902 253.80939717 47.375 253.9375 C47.375 259.8775 47.375 265.8175 47.375 271.9375 C60.905 271.9375 74.435 271.9375 88.375 271.9375 C88.375 265.9975 88.375 260.0575 88.375 253.9375 C104.18193785 253.25024183 122.67293431 256.05198407 137.375 261.9375 C139.1365128 262.35409135 140.90813133 262.73035118 142.6875 263.0625 C143.57050781 263.23007812 144.45351563 263.39765625 145.36328125 263.5703125 C146.02714844 263.69148438 146.69101562 263.81265625 147.375 263.9375 C146.77176766 267.31560112 145.47307945 269.26005812 143.375 271.9375 C144.12916388 271.93142447 144.88332775 271.92534895 145.66034508 271.91908932 C170.02346276 271.723575 194.38667819 271.54315365 218.75 271.375 C219.67210187 271.36861716 220.59420375 271.36223432 221.5442481 271.35565805 C312.80192834 270.72569964 312.80192834 270.72569964 355.4375 271.375 C356.28022209 271.38781384 357.12294418 271.40062767 357.99120331 271.4138298 C367.45306373 271.5600591 376.91427984 271.72917425 386.375 271.9375 C385.74949148 273.21440503 385.12097646 274.48983756 384.49121094 275.76464844 C384.14153259 276.47506287 383.79185425 277.18547729 383.43157959 277.91741943 C382.06086495 280.5380966 380.4145546 282.83593651 378.625 285.1875 C375.09468015 289.92710068 371.7886424 294.76928064 368.53125 299.69921875 C366.24248452 303.13651328 363.90859729 306.53926185 361.5625 309.9375 C360.11457501 312.04175362 358.66773587 314.14675023 357.22119141 316.25195312 C355.82874505 318.27746356 354.43500212 320.30205891 353.04052734 322.32617188 C350.8745283 325.4717865 348.71555648 328.62214665 346.55996704 331.77490234 C345.68967202 333.04556349 344.81726813 334.31478292 343.94271851 335.58251953 C342.70364699 337.3793989 341.4721576 339.18125789 340.2421875 340.984375 C339.52144043 342.03463867 338.80069336 343.08490234 338.05810547 344.16699219 C336.08998002 347.36207771 336.08998002 347.36207771 335.375 350.9375 C336.89611125 353.65640938 338.45862159 356.09157915 340.25 358.625 C341.05280396 359.79337402 341.05280396 359.79337402 341.87182617 360.98535156 C343.05700698 362.70955575 344.24731332 364.43024454 345.44189453 366.14794922 C348.17115746 370.086388 350.85455702 374.05541329 353.54199219 378.02246094 C356.42721966 382.2787296 359.32387036 386.52717084 362.22021484 390.77587891 C364.33192259 393.87429442 366.44160761 396.9740778 368.55078125 400.07421875 C369.86712612 402.00785429 371.18352971 403.94144985 372.5 405.875 C373.09079346 406.74350586 373.68158691 407.61201172 374.2902832 408.50683594 C374.85706787 409.33860352 375.42385254 410.17037109 376.0078125 411.02734375 C376.55469727 411.83026855 377.10158203 412.63319336 377.66503906 413.46044922 C378.88134717 415.22239411 380.11428968 416.97290596 381.35839844 418.71533203 C382.00067383 419.61493652 382.64294922 420.51454102 383.3046875 421.44140625 C383.89233887 422.25552979 384.47999023 423.06965332 385.08544922 423.90844727 C386.375 425.9375 386.375 425.9375 386.375 427.9375 C136.235 427.9375 -113.905 427.9375 -371.625 427.9375 C-370.18640061 424.34100152 -369.15961833 422.00350321 -367.04296875 418.9609375 C-366.53008301 418.21803467 -366.01719727 417.47513184 -365.48876953 416.7097168 C-364.93560059 415.91863525 -364.38243164 415.12755371 -363.8125 414.3125 C-362.62618297 412.59773865 -361.43998835 410.8828926 -360.25390625 409.16796875 C-359.64820801 408.29575684 -359.04250977 407.42354492 -358.41845703 406.52490234 C-355.67754614 402.57061788 -352.96387391 398.59786591 -350.25 394.625 C-349.17582386 393.05465835 -348.10160429 391.48434641 -347.02734375 389.9140625 C-344.60237644 386.36752107 -342.17783929 382.82068591 -339.75390625 379.2734375 C-339.10139893 378.31856445 -338.4488916 377.36369141 -337.77661133 376.37988281 C-335.86150431 373.57185269 -333.95409287 370.75870421 -332.046875 367.9453125 C-330.01332688 364.95104181 -327.95420063 361.98391247 -325.828125 359.0546875 C-325.08046875 358.00539063 -324.3328125 356.95609375 -323.5625 355.875 C-322.93214844 355.01777344 -322.30179688 354.16054688 -321.65234375 353.27734375 C-320.33821236 350.97742239 -320.33821236 350.97742239 -321.33447266 348.6394043 C-322.74952239 345.67679449 -324.39683501 343.0803554 -326.24609375 340.3671875 C-326.9613623 339.31241211 -327.67663086 338.25763672 -328.41357422 337.17089844 C-329.14334473 336.10387695 -329.87311523 335.03685547 -330.625 333.9375 C-331.94931536 331.98183625 -333.27353587 330.02610827 -334.59765625 328.0703125 C-335.96028445 326.06726392 -337.32358505 324.06467262 -338.6875 322.0625 C-339.78396851 320.45217896 -339.78396851 320.45217896 -340.90258789 318.80932617 C-342.03322431 317.14885445 -343.16395116 315.48844468 -344.29496765 313.82823181 C-346.77061838 310.19395463 -349.241826 306.55669103 -351.7109375 302.91796875 C-357.65434254 294.16783192 -363.59981873 285.4290295 -369.83374023 276.88208008 C-372.625 273.03769662 -372.625 273.03769662 -372.625 271.9375 C-359.425 271.9375 -346.225 271.9375 -332.625 271.9375 C-332.625 269.9575 -332.625 267.9775 -332.625 265.9375 C-331.8203125 262.8671875 -331.8203125 262.8671875 -330.75 259.8125 C-330.40195312 258.79929687 -330.05390625 257.78609375 -329.6953125 256.7421875 C-328.79328486 254.37848004 -327.81019633 252.16908589 -326.625 249.9375 C-327.181875 249.834375 -327.73875 249.73125 -328.3125 249.625 C-331.1019101 248.79571592 -333.2389064 247.59450944 -335.625 245.9375 C-335.625 245.2775 -335.625 244.6175 -335.625 243.9375 C-336.21708252 243.81165527 -336.80916504 243.68581055 -337.41918945 243.55615234 C-340.91407026 242.57596109 -343.78415579 240.50676768 -346.8125 238.5625 C-347.50214844 238.12421875 -348.19179688 237.6859375 -348.90234375 237.234375 C-350.37447156 236.29708499 -351.84496456 235.35722324 -353.31396484 234.41503906 C-355.68758041 232.89748979 -358.07148747 231.3971531 -360.45703125 229.8984375 C-362.01340514 228.91206446 -363.56940495 227.92510088 -365.125 226.9375 C-365.87289795 226.46908691 -366.6207959 226.00067383 -367.39135742 225.51806641 C-369.1713062 224.37801224 -370.90381978 223.16447996 -372.625 221.9375 C-372.625 221.2775 -372.625 220.6175 -372.625 219.9375 C-371.39160889 220.02314209 -370.15821777 220.10878418 -368.88745117 220.19702148 C-364.21503367 220.52103203 -359.5424738 220.8429505 -354.86987305 221.16430664 C-352.86560321 221.30242729 -350.86136997 221.44108016 -348.85717773 221.58032227 C-347.89303955 221.64727295 -346.92890137 221.71422363 -345.93554688 221.78320312 C-344.97234528 221.85025955 -344.00914368 221.91731598 -343.01675415 221.98640442 C-341.07375339 222.11800918 -339.13035605 222.24388262 -337.18661499 222.36405945 C-332.50794639 222.65407748 -327.85833286 223.0036571 -323.19970703 223.52856445 C-314.89870674 224.6335895 -314.89870674 224.6335895 -307.01245117 222.61352539 C-304.97517768 220.62239449 -303.59424883 218.68688355 -302.125 216.25 C-301.00963357 214.66966611 -299.89111621 213.0915516 -298.76953125 211.515625 C-298.24311035 210.73380859 -297.71668945 209.95199219 -297.17431641 209.14648438 C-294.9740162 206.0093403 -292.45772156 203.26311052 -289.8125 200.5 C-289.02230469 199.65566406 -288.23210937 198.81132813 -287.41796875 197.94140625 C-286.77275269 197.25485962 -286.77275269 197.25485962 -286.11450195 196.55444336 C-285.0047484 195.34973958 -283.91218715 194.12915454 -282.82885742 192.90063477 C-276.35166746 185.57012599 -269.49424746 178.65431051 -262.56811523 171.75024414 C-260.55922136 169.74673014 -258.55575611 167.73789848 -256.55273438 165.72851562 C-244.93437517 154.10484391 -244.93437517 154.10484391 -239.13061523 149.23486328 C-237.57829739 147.89725715 -236.16808469 146.47808934 -234.75 145 C-232.625 142.9375 -232.625 142.9375 -230.625 142.9375 C-230.625 142.2775 -230.625 141.6175 -230.625 140.9375 C-228.9464487 139.44120821 -227.20541102 138.01457339 -225.4375 136.625 C-222.4083166 134.23652741 -219.58972235 131.9015178 -216.88671875 129.14453125 C-214.625 126.9375 -214.625 126.9375 -212.625 126.9375 C-215.11342697 124.20482307 -217.88641772 122.36582984 -221 120.390625 C-222.06863281 119.71 -223.13726562 119.029375 -224.23828125 118.328125 C-225.36712497 117.61448442 -226.49603148 116.90094313 -227.625 116.1875 C-228.71167969 115.4965625 -229.79835938 114.805625 -230.91796875 114.09375 C-231.99691406 113.40796875 -233.07585937 112.7221875 -234.1875 112.015625 C-235.25484375 111.33693359 -236.3221875 110.65824219 -237.421875 109.95898438 C-239.56988028 108.60338348 -241.72630579 107.26104005 -243.890625 105.93164062 C-244.89609375 105.30966797 -245.9015625 104.68769531 -246.9375 104.046875 C-247.84113281 103.49483398 -248.74476563 102.94279297 -249.67578125 102.37402344 C-250.31902344 101.8999707 -250.96226562 101.42591797 -251.625 100.9375 C-251.625 100.2775 -251.625 99.6175 -251.625 98.9375 C-252.40810547 98.81568359 -252.40810547 98.81568359 -253.20703125 98.69140625 C-256.58504498 97.63816449 -259.35859167 95.77327023 -262.3125 93.875 C-263.34105103 93.22277466 -263.34105103 93.22277466 -264.39038086 92.55737305 C-266.80556458 91.02306744 -269.21513323 89.48014199 -271.625 87.9375 C-273.55972444 86.70545998 -275.49462938 85.47370337 -277.4296875 84.2421875 C-288.6355315 77.09942629 -299.79978887 69.89554341 -310.91308594 62.60961914 C-316.10047699 59.21444023 -321.31003632 55.85881947 -326.55078125 52.546875 C-327.7109554 51.81187721 -328.8711118 51.07685141 -330.03125 50.34179688 C-332.26019698 48.92998237 -334.49376093 47.52655381 -336.73046875 46.12695312 C-337.73335937 45.49208984 -338.73625 44.85722656 -339.76953125 44.203125 C-340.66003174 43.64399414 -341.55053223 43.08486328 -342.46801758 42.50878906 C-344.625 40.9375 -344.625 40.9375 -346.625 37.9375 C-323.92505692 38.85549868 -301.27394168 40.14904204 -278.625 41.9375 C-277.54019348 42.02108765 -276.45538696 42.10467529 -275.33770752 42.1907959 C-272.22449362 42.43229509 -269.11219179 42.68320121 -266 42.9375 C-265.08278168 43.00833801 -264.16556335 43.07917603 -263.22055054 43.15216064 C-258.22423618 43.57475609 -253.50266808 44.35373492 -248.62652588 45.5118103 C-245.97728657 46.07525737 -243.44716254 46.17694739 -240.7421875 46.17578125 C-239.60579834 46.18867187 -238.46940918 46.2015625 -237.29858398 46.21484375 C-236.04505127 46.22644531 -234.79151855 46.23804688 -233.5 46.25 C-209.27173999 46.65061926 -185.1086333 49.08795137 -160.97311401 51.10118103 C-153.18749 51.74536609 -145.40516986 52.31407076 -137.60424805 52.73339844 C-134.71055911 52.93163854 -131.87305607 53.29824724 -129 53.6875 C-121.7249037 53.60076264 -116.69517635 48.04316847 -111.49609375 43.52832031 C-108.4110515 40.90539034 -105.18244775 38.48284264 -101.9375 36.0625 C-101.27500244 35.56717773 -100.61250488 35.07185547 -99.92993164 34.56152344 C-88.33992228 25.95834544 -76.42685689 17.88680415 -64.0625 10.4375 C-63.26618164 9.95732422 -62.46986328 9.47714844 -61.64941406 8.98242188 C-53.83194768 4.34477599 -45.90548497 0.18482658 -37.3125 -2.8125 C-35.58580078 -3.42351562 -35.58580078 -3.42351562 -33.82421875 -4.046875 C-21.75895494 -7.87711748 -10.38452222 -7.31401565 0 0 Z " transform="translate(532.625,472.0625)" style="fill: #444648;"/><path d="M0 0 C5.50910236 4.47018859 9.13848839 10.22796516 11.375 16.9375 C12.08377213 25.87267652 11.49512124 32.96848808 7.375 40.9375 C6.97410156 41.78441406 6.57320312 42.63132812 6.16015625 43.50390625 C-1.04588024 57.85331804 -12.5879009 69.48767049 -23.625 80.9375 C-24.91083984 82.28521484 -24.91083984 82.28521484 -26.22265625 83.66015625 C-30.12279647 87.67354918 -30.12279647 87.67354918 -31.625 88.9375 C-32.285 88.9375 -32.945 88.9375 -33.625 88.9375 C-33.955 89.9275 -34.285 90.9175 -34.625 91.9375 C-36.40234375 93.76171875 -36.40234375 93.76171875 -38.5625 95.625 C-39.62791016 96.55892578 -39.62791016 96.55892578 -40.71484375 97.51171875 C-42.625 98.9375 -42.625 98.9375 -44.625 98.9375 C-44.625 99.5975 -44.625 100.2575 -44.625 100.9375 C-46.21834239 102.37299726 -47.87751082 103.73577327 -49.5625 105.0625 C-54.15288347 108.72175918 -58.54467522 112.51217159 -62.84765625 116.50390625 C-64.625 117.9375 -64.625 117.9375 -66.625 117.9375 C-66.67563567 118.70865237 -66.72627134 119.47980474 -66.77844143 120.27432537 C-67.37276311 128.68667182 -68.33922906 137.00294129 -69.48266602 145.35668945 C-69.67032105 146.74770904 -69.85764849 148.13877285 -70.04467773 149.52987671 C-70.54749734 153.26291151 -71.05482935 156.99531998 -71.56304669 160.72762322 C-72.09556613 164.64432223 -72.6238324 168.5615949 -73.15257263 172.47880554 C-74.15184124 179.87717237 -75.15486915 187.2750243 -76.15928835 194.67269343 C-77.30371201 203.10290784 -78.44388325 211.5336957 -79.58371842 219.96453154 C-81.92612057 237.28949223 -84.27435511 254.61365562 -86.625 271.9375 C-99.495 271.9375 -112.365 271.9375 -125.625 271.9375 C-128.78498032 264.35354723 -131.88630317 256.79072114 -134.8046875 249.1171875 C-135.18053986 248.13364288 -135.55639221 247.15009827 -135.94363403 246.13674927 C-137.13078827 243.02931158 -138.31552452 239.92095962 -139.5 236.8125 C-140.67395787 233.735653 -141.84844658 230.6590099 -143.02349854 227.58258057 C-143.78938979 225.57682122 -144.55449619 223.57076198 -145.31878662 221.56439209 C-147.10591979 216.87945219 -148.90830478 212.20190237 -150.75488281 207.54003906 C-151.08352325 206.70779816 -151.4121637 205.87555725 -151.75076294 205.01809692 C-152.36289397 203.47227374 -152.97923317 201.92810768 -153.60055542 200.38595581 C-154.77577472 197.41563343 -155.625 195.16339115 -155.625 191.9375 C-159.74911546 194.08921241 -163.3386531 196.42481874 -166.9375 199.375 C-196.96457655 223.81983143 -230.94594385 244.6468517 -265.1875 262.625 C-266.19393555 263.15480469 -267.20037109 263.68460938 -268.23730469 264.23046875 C-269.1709082 264.71515625 -270.10451172 265.19984375 -271.06640625 265.69921875 C-271.89857666 266.13194092 -272.73074707 266.56466309 -273.58813477 267.01049805 C-275.625 267.9375 -275.625 267.9375 -277.625 267.9375 C-277.625 269.2575 -277.625 270.5775 -277.625 271.9375 C-295.445 271.9375 -313.265 271.9375 -331.625 271.9375 C-331.625 262.90779703 -331.625 262.90779703 -330.25 258.6875 C-329.99476563 257.87796875 -329.73953125 257.0684375 -329.4765625 256.234375 C-328.66313203 254.04035152 -327.7159499 252.00556155 -326.625 249.9375 C-327.181875 249.834375 -327.73875 249.73125 -328.3125 249.625 C-331.1019101 248.79571592 -333.2389064 247.59450944 -335.625 245.9375 C-335.625 245.2775 -335.625 244.6175 -335.625 243.9375 C-336.21708252 243.81165527 -336.80916504 243.68581055 -337.41918945 243.55615234 C-340.91407026 242.57596109 -343.78415579 240.50676768 -346.8125 238.5625 C-347.50214844 238.12421875 -348.19179688 237.6859375 -348.90234375 237.234375 C-350.37447156 236.29708499 -351.84496456 235.35722324 -353.31396484 234.41503906 C-355.68758041 232.89748979 -358.07148747 231.3971531 -360.45703125 229.8984375 C-362.01340514 228.91206446 -363.56940495 227.92510088 -365.125 226.9375 C-365.87289795 226.46908691 -366.6207959 226.00067383 -367.39135742 225.51806641 C-369.1713062 224.37801224 -370.90381978 223.16447996 -372.625 221.9375 C-372.625 221.2775 -372.625 220.6175 -372.625 219.9375 C-371.39160889 220.02314209 -370.15821777 220.10878418 -368.88745117 220.19702148 C-364.21503367 220.52103203 -359.5424738 220.8429505 -354.86987305 221.16430664 C-352.86560321 221.30242729 -350.86136997 221.44108016 -348.85717773 221.58032227 C-347.89303955 221.64727295 -346.92890137 221.71422363 -345.93554688 221.78320312 C-344.97234528 221.85025955 -344.00914368 221.91731598 -343.01675415 221.98640442 C-341.07375339 222.11800918 -339.13035605 222.24388262 -337.18661499 222.36405945 C-332.50794639 222.65407748 -327.85833286 223.0036571 -323.19970703 223.52856445 C-314.89870674 224.6335895 -314.89870674 224.6335895 -307.01245117 222.61352539 C-304.97517768 220.62239449 -303.59424883 218.68688355 -302.125 216.25 C-301.00963357 214.66966611 -299.89111621 213.0915516 -298.76953125 211.515625 C-298.24311035 210.73380859 -297.71668945 209.95199219 -297.17431641 209.14648438 C-294.9740162 206.0093403 -292.45772156 203.26311052 -289.8125 200.5 C-289.02230469 199.65566406 -288.23210937 198.81132813 -287.41796875 197.94140625 C-286.77275269 197.25485962 -286.77275269 197.25485962 -286.11450195 196.55444336 C-285.0047484 195.34973958 -283.91218715 194.12915454 -282.82885742 192.90063477 C-276.35166746 185.57012599 -269.49424746 178.65431051 -262.56811523 171.75024414 C-260.55922136 169.74673014 -258.55575611 167.73789848 -256.55273438 165.72851562 C-244.93437517 154.10484391 -244.93437517 154.10484391 -239.13061523 149.23486328 C-237.57829739 147.89725715 -236.16808469 146.47808934 -234.75 145 C-232.625 142.9375 -232.625 142.9375 -230.625 142.9375 C-230.625 142.2775 -230.625 141.6175 -230.625 140.9375 C-228.9464487 139.44120821 -227.20541102 138.01457339 -225.4375 136.625 C-222.4083166 134.23652741 -219.58972235 131.9015178 -216.88671875 129.14453125 C-214.625 126.9375 -214.625 126.9375 -212.625 126.9375 C-215.11342697 124.20482307 -217.88641772 122.36582984 -221 120.390625 C-222.06863281 119.71 -223.13726562 119.029375 -224.23828125 118.328125 C-225.36712497 117.61448442 -226.49603148 116.90094313 -227.625 116.1875 C-228.71167969 115.4965625 -229.79835938 114.805625 -230.91796875 114.09375 C-231.99691406 113.40796875 -233.07585937 112.7221875 -234.1875 112.015625 C-235.25484375 111.33693359 -236.3221875 110.65824219 -237.421875 109.95898438 C-239.56988028 108.60338348 -241.72630579 107.26104005 -243.890625 105.93164062 C-244.89609375 105.30966797 -245.9015625 104.68769531 -246.9375 104.046875 C-247.84113281 103.49483398 -248.74476563 102.94279297 -249.67578125 102.37402344 C-250.31902344 101.8999707 -250.96226562 101.42591797 -251.625 100.9375 C-251.625 100.2775 -251.625 99.6175 -251.625 98.9375 C-252.40810547 98.81568359 -252.40810547 98.81568359 -253.20703125 98.69140625 C-256.58504498 97.63816449 -259.35859167 95.77327023 -262.3125 93.875 C-263.34105103 93.22277466 -263.34105103 93.22277466 -264.39038086 92.55737305 C-266.80556458 91.02306744 -269.21513323 89.48014199 -271.625 87.9375 C-273.55972444 86.70545998 -275.49462938 85.47370337 -277.4296875 84.2421875 C-288.6355315 77.09942629 -299.79978887 69.89554341 -310.91308594 62.60961914 C-316.10047699 59.21444023 -321.31003632 55.85881947 -326.55078125 52.546875 C-327.7109554 51.81187721 -328.8711118 51.07685141 -330.03125 50.34179688 C-332.26019698 48.92998237 -334.49376093 47.52655381 -336.73046875 46.12695312 C-337.73335937 45.49208984 -338.73625 44.85722656 -339.76953125 44.203125 C-340.66003174 43.64399414 -341.55053223 43.08486328 -342.46801758 42.50878906 C-344.625 40.9375 -344.625 40.9375 -346.625 37.9375 C-323.92505692 38.85549868 -301.27394168 40.14904204 -278.625 41.9375 C-277.54019348 42.02108765 -276.45538696 42.10467529 -275.33770752 42.1907959 C-272.22449362 42.43229509 -269.11219179 42.68320121 -266 42.9375 C-265.08278168 43.00833801 -264.16556335 43.07917603 -263.22055054 43.15216064 C-258.22423618 43.57475609 -253.50266808 44.35373492 -248.62652588 45.5118103 C-245.97728657 46.07525737 -243.44716254 46.17694739 -240.7421875 46.17578125 C-239.60579834 46.18867187 -238.46940918 46.2015625 -237.29858398 46.21484375 C-236.04505127 46.22644531 -234.79151855 46.23804688 -233.5 46.25 C-209.27173999 46.65061926 -185.1086333 49.08795137 -160.97311401 51.10118103 C-153.18749 51.74536609 -145.40516986 52.31407076 -137.60424805 52.73339844 C-134.71055911 52.93163854 -131.87305607 53.29824724 -129 53.6875 C-121.7249037 53.60076264 -116.69517635 48.04316847 -111.49609375 43.52832031 C-108.4110515 40.90539034 -105.18244775 38.48284264 -101.9375 36.0625 C-101.27500244 35.56717773 -100.61250488 35.07185547 -99.92993164 34.56152344 C-88.33992228 25.95834544 -76.42685689 17.88680415 -64.0625 10.4375 C-63.26618164 9.95732422 -62.46986328 9.47714844 -61.64941406 8.98242188 C-53.83194768 4.34477599 -45.90548497 0.18482658 -37.3125 -2.8125 C-35.58580078 -3.42351562 -35.58580078 -3.42351562 -33.82421875 -4.046875 C-21.75895494 -7.87711748 -10.38452222 -7.31401565 0 0 Z " transform="translate(532.625,472.0625)" style="fill: #FBFB24;"/><path d="M0 0 C0 5.94 0 11.88 0 18 C13.53 18 27.06 18 41 18 C41 12.06 41 6.12 41 0 C56.80693785 -0.68725817 75.29793431 2.11448407 90 8 C91.7615128 8.41659135 93.53313133 8.79285118 95.3125 9.125 C96.19550781 9.29257812 97.07851563 9.46015625 97.98828125 9.6328125 C98.65214844 9.75398437 99.31601562 9.87515625 100 10 C99.3405469 13.69293736 98.47070566 14.70572579 96 18 C148.47 18 200.94 18 255 18 C251.986428 22.520358 249.49522471 25.76115215 245.74609375 29.51953125 C244.99465843 30.27383675 244.99465843 30.27383675 244.2280426 31.04338074 C243.17067861 32.102098 242.11081568 33.15832487 241.04858398 34.2121582 C239.45911913 35.79102502 237.88047628 37.38013204 236.30273438 38.97070312 C229.86001582 45.42236579 223.18418999 51.36789151 216 57 C215.06716187 57.74431274 215.06716187 57.74431274 214.11547852 58.50366211 C212.60777114 59.7025647 211.08562251 60.88324313 209.5625 62.0625 C208.76634277 62.67955811 208.76634277 62.67955811 207.95410156 63.30908203 C203.24135851 66.91531866 198.32122835 70.10081502 193.265625 73.2109375 C190.92277914 74.80184322 190.92277914 74.80184322 189.9921875 77.00390625 C190.00298477 79.76260809 190.97790236 80.60857686 192.875 82.5625 C197.24384129 87.12438311 197.52506498 91.3619932 197.47265625 97.53125 C196.34829289 105.78277616 191.48476761 114.96750244 185.18359375 120.46875 C174.64204533 127.8610344 166.73227076 130.12343566 154 129 C153.62875 130.918125 153.62875 130.918125 153.25 132.875 C152.26775411 137.38763692 150.68842287 141.43315768 148.8046875 145.640625 C147.91483636 148.2497031 147.78281847 150.26162413 148 153 C149.49743119 154.49743119 150.98824239 154.33202693 153.0625 154.5625 C154.361875 154.706875 155.66125 154.85125 157 155 C157.625 156.875 157.625 156.875 158 159 C156 161 156 161 152.37646484 161.22705078 C150.82125311 161.22673357 149.26601949 161.21540299 147.7109375 161.1953125 C146.89251373 161.1924826 146.07408997 161.18965271 145.23086548 161.18673706 C142.61209607 161.17552532 139.99366636 161.15041929 137.375 161.125 C135.60156743 161.11497147 133.82812951 161.1058454 132.0546875 161.09765625 C127.70299374 161.07558278 123.3515545 161.04104644 119 161 C118.67 159.68 118.34 158.36 118 157 C118.67546875 156.8040625 119.3509375 156.608125 120.046875 156.40625 C120.93890625 156.1071875 121.8309375 155.808125 122.75 155.5 C124.07257813 155.08234375 124.07257813 155.08234375 125.421875 154.65625 C131.40270784 150.81401799 133.24532968 141.88598658 135.41796875 135.42578125 C135.72068192 134.53892136 136.02339508 133.65206146 136.33528137 132.73832703 C136.96899044 130.87782392 137.59995133 129.01638267 138.22827148 127.15405273 C139.18900956 124.30802818 140.15923932 121.46537248 141.13085938 118.62304688 C141.74795557 116.80748182 142.36451096 114.99173284 142.98046875 113.17578125 C143.26899216 112.32985916 143.55751556 111.48393707 143.8547821 110.61238098 C145.1494102 106.76366394 146.35017376 103.02178732 147 99 C146.02160156 99.39832031 145.04320312 99.79664063 144.03515625 100.20703125 C137.71997296 102.7639064 131.43626476 105.27328277 124.94140625 107.34375 C121.87627861 108.37984948 118.95284606 109.68064325 116 111 C115.95875 112.27875 115.9175 113.5575 115.875 114.875 C115.85179687 115.59429688 115.82859375 116.31359375 115.8046875 117.0546875 C115.81668311 119.23863645 115.81668311 119.23863645 118 121 C119.98821313 121.39764263 121.98944339 121.73775349 124 122 C124 123.65 124 125.3 124 127 C111.79 127 99.58 127 87 127 C86.67 125.68 86.34 124.36 86 123 C89.3 121.68 92.6 120.36 96 119 C96.33 112.07 96.66 105.14 97 98 C83.47002375 96.98175794 83.47002375 96.98175794 71.08984375 100.9765625 C69.31495143 103.58836304 68.14343474 106.06091864 67 109 C66.03796657 110.67661469 65.05979357 112.34411634 64.0625 114 C62.41197581 116.83948647 62.41197581 116.83948647 62 120 C64.97 120.99 67.94 121.98 71 123 C70.67 124.32 70.34 125.64 70 127 C65.46102295 127.02465392 60.92208457 127.04283789 56.38305664 127.05493164 C54.83780234 127.0599714 53.29255284 127.0668032 51.74731445 127.07543945 C49.53074971 127.08752076 47.31424782 127.09323173 45.09765625 127.09765625 C44.05545677 127.10539818 44.05545677 127.10539818 42.99220276 127.11329651 C41.3277067 127.11349277 39.66334501 127.06189129 38 127 C37.67 126.67 37.34 126.34 37 126 C35.48924551 125.85665253 33.97207327 125.78012978 32.45532227 125.73120117 C31.48663712 125.69834518 30.51795197 125.6654892 29.51991272 125.63163757 C28.46275558 125.60237686 27.40559845 125.57311615 26.31640625 125.54296875 C25.23173569 125.51270096 24.14706512 125.48243317 23.02952576 125.45124817 C20.72361988 125.39030982 18.41762902 125.3325207 16.11157227 125.27758789 C13.76138129 125.21793181 11.41140493 125.14904721 9.06176758 125.07055664 C5.66770197 124.95722145 2.2739222 124.87210589 -1.12109375 124.79296875 C-2.16003281 124.75358688 -3.19897186 124.71420502 -4.26939392 124.67362976 C-10.54128587 124.56609388 -15.22327852 125.44123416 -20.931427 128.08383179 C-23.48919651 129.21666448 -25.64959745 129.50616755 -28.4375 129.4375 C-29.24058594 129.43621094 -30.04367187 129.43492187 -30.87109375 129.43359375 C-33 129 -33 129 -34.78515625 127.84765625 C-36.51350676 125.21900741 -36.20476463 123.07146946 -36 120 C-37.16015625 119.81824219 -37.16015625 119.81824219 -38.34375 119.6328125 C-47.8942446 118.09622302 -47.8942446 118.09622302 -52.5 116.875 C-56.04547543 115.83830958 -56.04547543 115.83830958 -60 116 C-61.71358643 117.61838719 -63.3707726 119.29671681 -65 121 C-75.15678092 129.29166346 -75.15678092 129.29166346 -82.0625 129.25 C-82.91972656 129.25515625 -83.77695312 129.2603125 -84.66015625 129.265625 C-87 129 -87 129 -90 127 C-90.3125 123.5 -90.3125 123.5 -90 120 C-88 118 -88 118 -85.625 117.75 C-82.90980918 118.0085896 -81.37189102 118.72826269 -79 120 C-75.5501765 111.80907828 -72.74737052 103.44478642 -70 95 C-69.34 95 -68.68 95 -68 95 C-68 91.04 -68 87.08 -68 83 C-80.54378111 86.73644544 -86.95548582 100.0079426 -92.84082031 110.78662109 C-95.00884079 114.92631648 -96.98147063 119.15691119 -98.84423828 123.44213867 C-100.80425546 127.90212773 -100.80425546 127.90212773 -103 129 C-104.66345582 129.12082534 -106.33220591 129.1753794 -108 129.1875 C-108.886875 129.20167969 -109.77375 129.21585938 -110.6875 129.23046875 C-113 129 -113 129 -115 127 C-115.65470981 121.54650589 -113.90303229 117.09853315 -112.0703125 112.0625 C-111.76403427 111.19677368 -111.45775604 110.33104736 -111.14219666 109.43908691 C-110.48498049 107.5841815 -109.82361136 105.73074323 -109.15847778 103.87866211 C-107.77059997 100.01284966 -106.40367007 96.13975275 -105.03608704 92.26672363 C-104.34750191 90.31675887 -103.65795577 88.36713321 -102.967453 86.41784668 C-100.14505052 78.4433741 -97.38821117 70.44872531 -94.70672607 62.42578125 C-94.07340072 60.53258547 -93.43445367 58.64127329 -92.79541016 56.75 C-92.42077637 55.6259375 -92.04614258 54.501875 -91.66015625 53.34375 C-91.33668213 52.37630859 -91.01320801 51.40886719 -90.67993164 50.41210938 C-89.86434512 47.93643867 -89.86434512 47.93643867 -90 45 C-92.44496043 43.28288757 -92.44496043 43.28288757 -95 42 C-94.7525 41.113125 -94.505 40.22625 -94.25 39.3125 C-94.1675 38.219375 -94.085 37.12625 -94 36 C-94.66 35.2678125 -95.32 34.535625 -96 33.78125 C-98.6082648 30.15413176 -98.25963506 27.41423519 -97.75 23.1875 C-97.68425781 22.49462891 -97.61851562 21.80175781 -97.55078125 21.08789062 C-97.38683876 19.38991481 -97.19610037 17.69456297 -97 16 C-96.67 16.66 -96.34 17.32 -96 18 C-82.47 18 -68.94 18 -55 18 C-56.65 16.35 -58.3 14.7 -60 13 C-60 12.01 -60 11.02 -60 10 C-49.86431526 7.14421816 -39.74207843 4.62269404 -29.375 2.75 C-28.02704346 2.50588379 -28.02704346 2.50588379 -26.65185547 2.25683594 C-17.69552087 0.68951898 -9.09530098 -0.12810283 0 0 Z " transform="translate(580,726)" style="fill: #5C5E48;"/><path d="M0 0 C42.57 0 85.14 0 129 0 C126.86195639 20.31141428 124.76193782 39.46309408 119 59 C118.56445801 60.49539307 118.56445801 60.49539307 118.12011719 62.02099609 C112.51076865 81.16442702 106.27720763 99.77486305 97.4375 117.6875 C97.00268311 118.57211914 96.56786621 119.45673828 96.11987305 120.36816406 C92.93179046 126.64342176 89.16348714 132.33010268 85 138 C78.609652 137.24819435 78.609652 137.24819435 75.58203125 136.015625 C72.96720443 134.98710008 70.64850564 134.53067694 67.875 134.125 C64.02847552 133.47200911 60.62119813 132.56896685 57 131.125 C41.49046481 125.27893048 25.17702399 124.16361328 8.76635742 123.23364258 C5.82591496 122.98529703 2.91076096 122.48512683 0 122 C0 81.74 0 41.48 0 0 Z " transform="translate(621,563)" style="fill: #252625;"/><path d="M0 0 C21.13179358 41.90177274 39 88.42292247 39 136 C-3.57 136 -46.14 136 -90 136 C-90 97.06 -90 58.12 -90 18 C-79.11 17.01 -79.11 17.01 -68 16 C-63.9391252 15.41717834 -59.95790378 14.82057744 -55.9375 14.0625 C-54.4987854 13.8003772 -54.4987854 13.8003772 -53.03100586 13.53295898 C-37.33942348 10.63173731 -22.16808066 6.61027466 -7.33203125 0.69921875 C-4.77521722 -0.06739718 -2.65452077 -0.04927504 0 0 Z " transform="translate(711,386)" style="fill: #252625;"/><path d="M0 0 C4.08716857 2.54942198 7.11016857 5.96174864 10.3671875 9.4765625 C10.91117188 10.06308594 11.45515625 10.64960938 12.015625 11.25390625 C13.84494774 13.29293184 15.6107443 15.37425597 17.3671875 17.4765625 C17.99318848 18.22389648 17.99318848 18.22389648 18.63183594 18.98632812 C31.19105399 34.07157097 42.20611536 50.11220698 51.3671875 67.4765625 C51.69493164 68.08435547 52.02267578 68.69214844 52.36035156 69.31835938 C61.69554104 86.69089669 69.1647632 105.28322549 73.86132812 124.44287109 C74.36027024 126.44875324 74.89698348 128.4407048 75.4453125 130.43359375 C77.43271728 137.77803259 78.93382835 145.14767206 80.1171875 152.6640625 C80.24496582 153.44700684 80.37274414 154.22995117 80.50439453 155.03662109 C81.53420744 162.03094815 81.3671875 168.1919299 81.3671875 175.4765625 C56.2871875 175.4765625 31.2071875 175.4765625 5.3671875 175.4765625 C4.7071875 167.8865625 4.0471875 160.2965625 3.3671875 152.4765625 C-1.51143712 108.56894088 -14.96349317 68.4586602 -34.44702148 28.98999023 C-35.61289638 26.51877712 -36.64544638 24.02370989 -37.6328125 21.4765625 C-36.54484375 20.8475 -35.456875 20.2184375 -34.3359375 19.5703125 C-19.55312845 10.99124558 -19.55312845 10.99124558 -5.61328125 1.125 C-2.6328125 -0.5234375 -2.6328125 -0.5234375 0 0 Z " transform="translate(785.6328125,346.5234375)" style="fill: #252625;"/><path d="M0 0 C25.08 0 50.16 0 76 0 C71.89906226 53.31219058 51.79886002 103.48856202 18 145 C17.56284668 145.54011719 17.12569336 146.08023438 16.67529297 146.63671875 C10.48642241 154.22521598 3.87546769 161.40635973 -2.9375 168.4375 C-4.02043335 169.58460449 -4.02043335 169.58460449 -5.12524414 170.75488281 C-5.81481201 171.45323242 -6.50437988 172.15158203 -7.21484375 172.87109375 C-7.82448975 173.49943115 -8.43413574 174.12776855 -9.06225586 174.77514648 C-11 176 -11 176 -13.5300293 175.81591797 C-17.00793672 174.66704314 -19.86793302 172.72591308 -22.875 170.6875 C-27.49644516 167.60484372 -32.14878614 164.71097245 -37 162 C-37 161.34 -37 160.68 -37 160 C-38.093125 159.71125 -39.18625 159.4225 -40.3125 159.125 C-44 158 -44 158 -47 156 C-45.50581677 151.83336334 -43.46388683 148.04597033 -41.36987305 144.16088867 C-32.50711576 127.69673465 -25.24376143 110.61444816 -19 93 C-18.71914551 92.22253418 -18.43829102 91.44506836 -18.14892578 90.64404297 C-13.52848338 77.78091281 -10.16501738 64.91739378 -7.50683594 51.51513672 C-7.07669393 49.38058809 -6.60880095 47.25370153 -6.1328125 45.12890625 C-3.65903497 33.8948959 -2.55790671 22.48304279 -1.34130859 11.05688477 C-0.92934231 7.36716386 -0.46049733 3.68397867 0 0 Z " transform="translate(791,563)" style="fill: #252625;"/><path d="M0 0 C0.33 0.66 0.66 1.32 1 2 C2.22517334 1.91210205 3.45034668 1.8242041 4.71264648 1.73364258 C9.28942228 1.42060966 13.8676142 1.18358049 18.44995117 0.96850586 C20.42671261 0.86528198 22.40253321 0.74187999 24.37670898 0.59741211 C40.75773604 -0.58063299 40.75773604 -0.58063299 46.03735352 3.14111328 C48.31412524 5.97450628 50.13232094 8.88569234 52 12 C53.46095517 13.63534956 54.97307685 15.22657784 56.53515625 16.765625 C57.28216797 17.51070312 58.02917969 18.25578125 58.79882812 19.0234375 C59.9193457 20.12558594 59.9193457 20.12558594 61.0625 21.25 C61.81337891 22.00023437 62.56425781 22.75046875 63.33789062 23.5234375 C68.06518259 28.2139571 72.93589178 32.67676104 78 37 C78.89847656 37.77988281 79.79695312 38.55976562 80.72265625 39.36328125 C85.47827524 43.32497386 89.00551006 45.59703427 95 47 C96.58312594 51.74937782 94.5247862 55.30365851 93 60 C96.96 60 100.92 60 105 60 C105 66 105 66 104 67 C101.64686445 67.07271741 99.29166332 67.08370868 96.9375 67.0625 C95.00197266 67.04896484 95.00197266 67.04896484 93.02734375 67.03515625 C92.02832031 67.02355469 91.02929688 67.01195312 90 67 C89.76539063 68.21558594 89.53078125 69.43117188 89.2890625 70.68359375 C87.88388899 77.00687453 85.61543525 82.99582143 83.375 89.0625 C82.95476562 90.21427734 82.53453125 91.36605469 82.1015625 92.55273438 C81.07271705 95.37036794 80.03876545 98.18601184 79 101 C82.38209706 100.25312023 84.29897865 99.19457984 87 97 C89.65708194 94.84112092 91.60863934 93.60560012 95 93 C95.70703125 94.7578125 95.70703125 94.7578125 96 97 C91.68455526 103.40189099 84.6703008 107.43796862 78 111 C77.34644531 111.37769531 76.69289063 111.75539063 76.01953125 112.14453125 C73.55520828 113.18841274 71.60791937 113.30041665 68.9375 113.3125 C68.08027344 113.32925781 67.22304688 113.34601563 66.33984375 113.36328125 C64 113 64 113 62.19140625 111.85546875 C60.49858613 109.21910954 60.79591449 107.06128258 61 104 C59.83984375 103.81824219 59.83984375 103.81824219 58.65625 103.6328125 C49.1057554 102.09622302 49.1057554 102.09622302 44.5 100.875 C40.95452457 99.83830958 40.95452457 99.83830958 37 100 C35.28641357 101.61838719 33.6292274 103.29671681 32 105 C21.84321908 113.29166346 21.84321908 113.29166346 14.9375 113.25 C14.08027344 113.25515625 13.22304688 113.2603125 12.33984375 113.265625 C10 113 10 113 7 111 C6.6875 107.5 6.6875 107.5 7 104 C9 102 9 102 11.375 101.75 C14.09019082 102.0085896 15.62810898 102.72826269 18 104 C21.4498235 95.80907828 24.25262948 87.44478642 27 79 C27.66 79 28.32 79 29 79 C29 75.04 29 71.08 29 67 C16.45621889 70.73644544 10.04451418 84.0079426 4.15917969 94.78662109 C1.99115921 98.92631648 0.01852937 103.15691119 -1.84423828 107.44213867 C-3.80425546 111.90212773 -3.80425546 111.90212773 -6 113 C-7.66345582 113.12082534 -9.33220591 113.1753794 -11 113.1875 C-11.886875 113.20167969 -12.77375 113.21585938 -13.6875 113.23046875 C-16 113 -16 113 -18 111 C-18.65470981 105.54650589 -16.90303229 101.09853315 -15.0703125 96.0625 C-14.76403427 95.19677368 -14.45775604 94.33104736 -14.14219666 93.43908691 C-13.48498049 91.5841815 -12.82361136 89.73074323 -12.15847778 87.87866211 C-10.77059997 84.01284966 -9.40367007 80.13975275 -8.03608704 76.26672363 C-7.34750191 74.31675887 -6.65795577 72.36713321 -5.967453 70.41784668 C-3.14505052 62.4433741 -0.38821117 54.44872531 2.29327393 46.42578125 C2.92659928 44.53258547 3.56554633 42.64127329 4.20458984 40.75 C4.57922363 39.6259375 4.95385742 38.501875 5.33984375 37.34375 C5.66331787 36.37630859 5.98679199 35.40886719 6.32006836 34.41210938 C7.13565488 31.93643867 7.13565488 31.93643867 7 29 C4.55503957 27.28288757 4.55503957 27.28288757 2 26 C2.2475 25.113125 2.495 24.22625 2.75 23.3125 C2.8325 22.219375 2.915 21.12625 3 20 C2.34 19.2678125 1.68 18.535625 1 17.78125 C-1.6082648 14.15413176 -1.25963506 11.41423519 -0.75 7.1875 C-0.68425781 6.49462891 -0.61851562 5.80175781 -0.55078125 5.08789062 C-0.38683876 3.38991481 -0.19610037 1.69456297 0 0 Z " transform="translate(483,742)" style="fill: #5D5F48;"/><path d="M0 0 C2.5418914 6.68101313 5.08287166 13.36237231 7.62329102 20.04394531 C8.48311949 22.30508816 9.3431379 24.56615879 10.20336914 26.82714844 C12.29881012 32.33488448 14.39079219 37.84387787 16.47607422 43.35546875 C18.17615137 47.84532064 19.89918766 52.32548813 21.63720703 56.80078125 C22.46783993 58.96091193 23.29840892 61.12106719 24.12890625 63.28125 C24.71441505 64.76908997 24.71441505 64.76908997 25.31175232 66.2869873 C25.66592728 67.21386353 26.02010223 68.14073975 26.38500977 69.09570312 C26.69801529 69.90108521 27.01102081 70.70646729 27.33351135 71.53625488 C28 74 28 74 28 80 C-21.5 80 -71 80 -122 80 C-122 78.68 -122 77.36 -122 76 C-121.50411377 75.75991211 -121.00822754 75.51982422 -120.49731445 75.27246094 C-80.08402187 55.61368962 -39.60505586 30.78394564 -5.234375 1.65625 C-3 0 -3 0 0 0 Z " transform="translate(377,664)" style="fill: #262725;"/><path d="M0 0 C3.34278629 1.49870308 6.69113655 0.8113116 10.2421875 0.44921875 C12.88879836 0.18221553 15.4512772 0.01952847 18.1171875 -0.05078125 C20.1171875 1.94921875 20.1171875 1.94921875 20.3671875 4.88671875 C20.1171875 7.94921875 20.1171875 7.94921875 18.1171875 10.94921875 C14.64777204 10.49099407 11.44323701 10.05790192 8.1171875 8.94921875 C8.16359375 9.72265625 8.21 10.49609375 8.2578125 11.29296875 C8.55669112 19.9177519 7.39768134 25.0308511 1.8671875 31.63671875 C-4.90247767 37.32939173 -11.2506314 39.99745721 -19.8828125 41.94921875 C-19.52415641 44.47910828 -19.31143103 45.62671145 -17.22802734 47.19433594 C-16.52371582 47.54141602 -15.8194043 47.88849609 -15.09375 48.24609375 C-14.3195874 48.64328613 -13.5454248 49.04047852 -12.74780273 49.44970703 C-11.92610596 49.8620459 -11.10440918 50.27438477 -10.2578125 50.69921875 C4.15256908 58.34209158 4.15256908 58.34209158 6.83984375 66.01171875 C7.50998275 69.44699439 7.12830538 71.91710043 5.9921875 75.19921875 C1.44767092 81.86450974 -5.50748619 84.50311326 -13.08984375 86.54296875 C-23.42998696 88.04698958 -36.92262498 89.06100981 -45.8828125 82.94921875 C-48.97079748 80.42204023 -50.60902276 77.99874608 -51.6328125 74.07421875 C-50.23533043 68.25137679 -46.28851751 64.45732688 -41.296875 61.328125 C-34.76878984 57.94921875 -34.76878984 57.94921875 -30.8828125 57.94921875 C-31.6253125 56.89734375 -31.6253125 56.89734375 -32.3828125 55.82421875 C-34.17333899 52.39237631 -34.58338027 50.76342108 -33.8828125 46.94921875 C-32.06237078 44.63277262 -30.1186779 42.90560098 -27.8828125 40.94921875 C-28.8521875 40.20671875 -29.8215625 39.46421875 -30.8203125 38.69921875 C-32.90668611 36.9761196 -33.78393729 36.21053181 -34.7578125 33.63671875 C-34.7990625 33.07984375 -34.8403125 32.52296875 -34.8828125 31.94921875 C-35.5428125 31.94921875 -36.2028125 31.94921875 -36.8828125 31.94921875 C-37.50204412 23.88774048 -37.90702555 17.45421266 -32.71875 10.9140625 C-24.93887999 2.5879463 -12.00404959 -6.69935548 0 0 Z " transform="translate(443.8828125,801.05078125)" style="fill: #F5F625;"/><path d="M0 0 C2.5 1 2.5 1 4 2 C3.67 4.64 3.34 7.28 3 10 C3.70125 9.94199219 4.4025 9.88398437 5.125 9.82421875 C12.18160188 9.48864665 16.60604097 10.33117225 22 15 C26.81338428 20.18364461 27.53131341 24.62646438 27.47265625 31.53125 C26.34829289 39.78277616 21.48476761 48.96750244 15.18359375 54.46875 C4.64204533 61.8610344 -3.26772924 64.12343566 -16 63 C-16.2475 64.27875 -16.495 65.5575 -16.75 66.875 C-17.73224589 71.38763692 -19.31157713 75.43315768 -21.1953125 79.640625 C-22.08516364 82.2497031 -22.21718153 84.26162413 -22 87 C-20.50256881 88.49743119 -19.01175761 88.33202693 -16.9375 88.5625 C-15.638125 88.706875 -14.33875 88.85125 -13 89 C-12.375 90.875 -12.375 90.875 -12 93 C-14 95 -14 95 -17.62353516 95.22705078 C-19.17874689 95.22673357 -20.73398051 95.21540299 -22.2890625 95.1953125 C-23.51669815 95.19106766 -23.51669815 95.19106766 -24.76913452 95.18673706 C-27.38790393 95.17552532 -30.00633364 95.15041929 -32.625 95.125 C-34.39843257 95.11497147 -36.17187049 95.1058454 -37.9453125 95.09765625 C-42.29700626 95.07558278 -46.6484455 95.04104644 -51 95 C-51.33 93.68 -51.66 92.36 -52 91 C-50.98679687 90.70609375 -50.98679687 90.70609375 -49.953125 90.40625 C-49.06109375 90.1071875 -48.1690625 89.808125 -47.25 89.5 C-46.36828125 89.2215625 -45.4865625 88.943125 -44.578125 88.65625 C-37.88244293 84.35478152 -35.87553617 73.21245474 -33.48828125 66.0390625 C-32.85634496 64.1648907 -32.22440755 62.29071927 -31.59240246 60.41657066 C-30.71668373 57.81483405 -29.84636792 55.21130267 -28.97595215 52.60778809 C-27.4424555 48.02479158 -25.90018021 43.44474114 -24.35820007 38.86459351 C-23.53924736 36.43025011 -22.7223061 33.99522894 -21.907547 31.55947876 C-21.54013901 30.46428925 -21.17273102 29.36909973 -20.79418945 28.24072266 C-20.47094193 27.27445953 -20.1476944 26.30819641 -19.81465149 25.31265259 C-19 23 -19 23 -18 21 C-18.60328125 21.20496094 -19.2065625 21.40992188 -19.828125 21.62109375 C-20.62734375 21.89050781 -21.4265625 22.15992188 -22.25 22.4375 C-23.03890625 22.70433594 -23.8278125 22.97117187 -24.640625 23.24609375 C-26.74821988 23.91954708 -28.84753973 24.49150595 -31 25 C-31.495 22.525 -31.495 22.525 -32 20 C-22.3911954 14.02591424 -22.3911954 14.02591424 -18.125 12.6875 C-14.08047557 10.50345681 -13.39265588 8.28361995 -11.921875 4.05859375 C-9.64727322 -1.02070768 -4.79783884 -0.50198716 0 0 Z " transform="translate(750,792)" style="fill: #F6F625;"/><path d="M0 0 C0.76183594 -0.00515625 1.52367187 -0.0103125 2.30859375 -0.015625 C4.77693018 0.2752708 6.420186 1.02024344 8.5625 2.25 C7.6875 8 7.6875 8 6.5625 10.25 C7.26375 10.20359375 7.965 10.1571875 8.6875 10.109375 C15.25304405 9.85959887 20.16999271 10.29464677 25.5625 14.25 C30.84099863 19.93453699 31.14473178 24.63761523 30.9765625 32.20703125 C30.57350546 38.32682896 27.84955944 43.17786282 24.5625 48.25 C24.16804687 48.86488281 23.77359375 49.47976563 23.3671875 50.11328125 C18.64458188 56.50366019 10.30812881 61.55682829 2.5625 63.25 C-2.09937856 63.76406661 -6.75201503 64.05915862 -11.4375 64.25 C-12.42500659 66.93468917 -13.40262355 69.62233265 -14.375 72.3125 C-14.65279297 73.06466797 -14.93058594 73.81683594 -15.21679688 74.59179688 C-16.86162588 79.16957398 -17.9296843 83.40968073 -18.4375 88.25 C-15.4675 88.58 -12.4975 88.91 -9.4375 89.25 C-9.1075 90.57 -8.7775 91.89 -8.4375 93.25 C-10.4375 95.25 -10.4375 95.25 -14.06103516 95.47705078 C-15.61624689 95.47673357 -17.17148051 95.46540299 -18.7265625 95.4453125 C-19.95419815 95.44106766 -19.95419815 95.44106766 -21.20663452 95.43673706 C-23.82540393 95.42552532 -26.44383364 95.40041929 -29.0625 95.375 C-30.83593257 95.36497147 -32.60937049 95.3558454 -34.3828125 95.34765625 C-38.73450626 95.32558278 -43.0859455 95.29104644 -47.4375 95.25 C-47.4375 93.6 -47.4375 91.95 -47.4375 90.25 C-46.79683594 90.24226562 -46.15617188 90.23453125 -45.49609375 90.2265625 C-42.18764828 89.78280677 -40.26939429 89.06217206 -37.4375 87.25 C-36.05845225 84.65035883 -35.07027314 82.36916167 -34.12109375 79.6171875 C-33.68879959 78.43703064 -33.68879959 78.43703064 -33.24777222 77.23303223 C-32.28619752 74.58016063 -31.35901147 71.9170396 -30.4375 69.25 C-30.10527435 68.29861145 -29.77304871 67.3472229 -29.43075562 66.36700439 C-26.92566604 59.17771464 -24.48798594 51.96645955 -22.0625 44.75 C-20.97983292 41.53858511 -19.89599739 38.32757155 -18.81063843 35.11706543 C-18.14221917 33.13890385 -17.47550399 31.16016545 -16.81069946 29.18078613 C-16.5130368 28.2980603 -16.21537415 27.41533447 -15.90869141 26.50585938 C-15.64778717 25.72964233 -15.38688293 24.95342529 -15.11807251 24.15368652 C-14.4375 22.25 -14.4375 22.25 -13.4375 20.25 C-14.02917969 20.52714844 -14.62085938 20.80429687 -15.23046875 21.08984375 C-23.07897627 24.68760984 -23.07897627 24.68760984 -27.4375 25.25 C-27.7675 23.93 -28.0975 22.61 -28.4375 21.25 C-23.69056871 16.97776184 -17.00323109 12.25 -10.4375 12.25 C-10.25574219 11.55132813 -10.07398438 10.85265625 -9.88671875 10.1328125 C-9.50966797 8.76769531 -9.50966797 8.76769531 -9.125 7.375 C-8.88136719 6.47007812 -8.63773438 5.56515625 -8.38671875 4.6328125 C-6.72914668 0.47182913 -4.10490909 -0.0276891 0 0 Z " transform="translate(820.4375,791.75)" style="fill: #F6F625;"/><path d="M0 0 C0 25.74 0 51.48 0 78 C-7.03050884 78 -12.8217809 77.33580848 -19.625 76 C-20.73278809 75.78577393 -21.84057617 75.57154785 -22.98193359 75.35083008 C-36.82307638 72.57203576 -50.41117927 68.80175245 -64 65 C-64 52.51912815 -42.03925603 36.01984189 -33.5 27.375 C-22.49370842 16.5169413 -22.49370842 16.5169413 -17 14 C-17 13.34 -17 12.68 -17 12 C-14.72247812 10.06924919 -12.43771937 8.24026611 -10.0625 6.4375 C-8.76142712 5.43657688 -7.46063154 4.43529318 -6.16015625 3.43359375 C-5.11730469 2.63050781 -4.07445312 1.82742188 -3 1 C-2 0 -2 0 0 0 Z " transform="translate(580,286)" style="fill: #292A25;"/><path d="M0 0 C4.09898797 2.04949398 7.16184657 4.56677553 10.5625 7.5625 C11.70834429 8.56527934 12.85552482 9.56653345 14.00390625 10.56640625 C14.6287793 11.11095459 15.25365234 11.65550293 15.89746094 12.21655273 C18.26169096 14.22197544 20.68750973 16.13983588 23.11328125 18.0703125 C29.40146671 23.1989132 35.14746611 28.81018463 40.87109375 34.55541992 C42.62117339 36.30866646 44.38421383 38.04810989 46.1484375 39.78710938 C53.08578343 46.68565093 59.70116881 53.72888536 65 62 C65 62.66 65 63.32 65 64 C53.2026991 69.23145091 41.15187819 72.18552717 28.4375 74.25 C27.44637207 74.41298584 26.45524414 74.57597168 25.43408203 74.74389648 C16.90248185 76.04966865 8.71149146 76.45553178 0 77 C0 51.59 0 26.18 0 0 Z " transform="translate(621,286)" style="fill: #272825;"/><path d="M0 0 C0.00808685 0.98527679 0.01617371 1.97055359 0.02450562 2.98568726 C0.10188165 12.25635165 0.18959898 21.52686773 0.28752708 30.79733849 C0.33754215 35.56375576 0.38387155 40.33015031 0.421875 45.09667969 C0.45866221 49.69385806 0.50500388 54.29084861 0.55806351 58.88786697 C0.57664248 60.64456524 0.5917374 62.40130381 0.60334396 64.15806198 C0.62014681 66.61257038 0.64916647 69.06664532 0.68115234 71.52099609 C0.68331253 72.25251389 0.68547272 72.98403168 0.68769836 73.73771667 C0.63878636 77.81970464 0.63878636 77.81970464 3 81 C4.98821313 81.39764263 6.98944339 81.73775349 9 82 C9 83.65 9 85.3 9 87 C-3.21 87 -15.42 87 -28 87 C-28.33 85.68 -28.66 84.36 -29 83 C-25.7 81.68 -22.4 80.36 -19 79 C-18.67 72.07 -18.34 65.14 -18 58 C-31.52997625 56.98175794 -31.52997625 56.98175794 -43.91015625 60.9765625 C-45.68504857 63.58836304 -46.85656526 66.06091864 -48 69 C-48.96203343 70.67661469 -49.94020643 72.34411634 -50.9375 74 C-52.58802419 76.83948647 -52.58802419 76.83948647 -53 80 C-50.03 80.99 -47.06 81.98 -44 83 C-44.495 84.98 -44.495 84.98 -45 87 C-55.56 87 -66.12 87 -77 87 C-77 85.35 -77 83.7 -77 82 C-75.2365625 81.690625 -75.2365625 81.690625 -73.4375 81.375 C-64.21085743 78.9751 -60.09978332 71.5317465 -55.23095703 63.89746094 C-52.82966751 60.19598887 -50.31199467 56.57302775 -47.8125 52.9375 C-46.68738649 51.29565069 -45.56238811 49.65372249 -44.4375 48.01171875 C-42.72701806 45.5174279 -41.01608999 43.02344449 -39.3046875 40.52978516 C-33.60857396 32.22902435 -27.91805505 23.92480061 -22.3125 15.5625 C-21.90233643 14.95374023 -21.49217285 14.34498047 -21.06958008 13.71777344 C-19.54366907 11.43134968 -18.11398777 9.28110544 -17.078125 6.7265625 C-15.43090878 4.08862928 -13.33923088 3.73938926 -10.4375 2.8125 C-1.82071713 0 -1.82071713 0 0 0 Z " transform="translate(695,766)" style="fill: #F7F724;"/><path d="M0 0 C-0.65194217 6.03046505 -2.8710182 11.3697409 -5 17 C-6.1310805 20.01858889 -7.25493046 23.03980891 -8.375 26.0625 C-8.67237061 26.86494141 -8.96974121 27.66738281 -9.27612305 28.49414062 C-12.37997045 36.93139491 -15.21255937 45.45389082 -18 54 C-17.28972656 53.42507813 -16.57945312 52.85015625 -15.84765625 52.2578125 C-13.08508049 50.06745751 -10.28277544 47.95652278 -7.4375 45.875 C-6.04337891 44.85019531 -6.04337891 44.85019531 -4.62109375 43.8046875 C0.88242324 40.01538072 5.31036641 38.91753502 12 40 C15.34625024 42.52676039 16.67977847 44.03933542 18 48 C19.11265754 61.35189053 11.85201602 76.04577716 3.6796875 86.31640625 C-1.21203538 91.21950522 -6.96118645 95.1362789 -13.9375 95.1875 C-14.81277344 95.20167969 -15.68804687 95.21585938 -16.58984375 95.23046875 C-19 95 -19 95 -22 93 C-22.3125 89.5 -22.3125 89.5 -22 86 C-20 84 -20 84 -17.625 83.75 C-14.90980918 84.0085896 -13.37189102 84.72826269 -11 86 C-7.5501765 77.80907828 -4.74737052 69.44478642 -2 61 C-1.34 61 -0.68 61 0 61 C0 57.04 0 53.08 0 49 C-12.54378111 52.73644544 -18.95548582 66.0079426 -24.84082031 76.78662109 C-27.00884079 80.92631648 -28.98147063 85.15691119 -30.84423828 89.44213867 C-32.80425546 93.90212773 -32.80425546 93.90212773 -35 95 C-36.66345582 95.12082534 -38.33220591 95.1753794 -40 95.1875 C-40.886875 95.20167969 -41.77375 95.21585938 -42.6875 95.23046875 C-45 95 -45 95 -47 93 C-47.65470981 87.54650589 -45.90303229 83.09853315 -44.0703125 78.0625 C-43.76403427 77.19677368 -43.45775604 76.33104736 -43.14219666 75.43908691 C-42.48498049 73.5841815 -41.82361136 71.73074323 -41.15847778 69.87866211 C-39.77059997 66.01284966 -38.40367007 62.13975275 -37.03608704 58.26672363 C-36.34750191 56.31675887 -35.65795577 54.36713321 -34.967453 52.41784668 C-32.14505052 44.4433741 -29.38821117 36.44872531 -26.70672607 28.42578125 C-26.07340072 26.53258547 -25.43445367 24.64127329 -24.79541016 22.75 C-24.42077637 21.6259375 -24.04614258 20.501875 -23.66015625 19.34375 C-23.33668213 18.37630859 -23.01320801 17.40886719 -22.67993164 16.41210938 C-21.86434512 13.93643867 -21.86434512 13.93643867 -22 11 C-24.44496043 9.28288757 -24.44496043 9.28288757 -27 8 C-26.67 6.68 -26.34 5.36 -26 4 C-17.20121611 1.34017869 -9.29969244 -0.69602688 0 0 Z " transform="translate(512,760)" style="fill: #F5F525;"/><path d="M0 0 C21.12 0 42.24 0 64 0 C63.28318841 5.01768111 62.49230773 9.12375552 61 13.875 C60.649375 15.00679687 60.29875 16.13859375 59.9375 17.3046875 C59 20 59 20 58 21 C56.33382885 21.04063832 54.66611905 21.042721 53 21 C52.90203125 20.15695312 52.8040625 19.31390625 52.703125 18.4453125 C52.55359375 17.34960938 52.4040625 16.25390625 52.25 15.125 C52.04117188 13.48917969 52.04117188 13.48917969 51.828125 11.8203125 C51.3101755 8.92771718 51.3101755 8.92771718 49.21875 7.8359375 C46.85511437 6.94541281 45.18642613 6.76876534 42.671875 6.8046875 C41.87265625 6.81113281 41.0734375 6.81757812 40.25 6.82421875 C39.425 6.84097656 38.6 6.85773437 37.75 6.875 C36.48929687 6.88853516 36.48929687 6.88853516 35.203125 6.90234375 C33.13529396 6.92584183 31.06761005 6.96171092 29 7 C26.06673957 13.92648596 23.74541732 20.87634117 21.75 28.125 C21.481875 29.08148437 21.21375 30.03796875 20.9375 31.0234375 C20.28672588 33.34763077 19.64097619 35.67308943 19 38 C21.75084547 37.88588196 24.50011947 37.75914051 27.25 37.625 C28.02730469 37.5940625 28.80460937 37.563125 29.60546875 37.53125 C35.1343768 37.35875882 35.1343768 37.35875882 40 35 C41.35723779 33.06220507 41.35723779 33.06220507 42.4375 30.875 C43.6953125 28.7109375 43.6953125 28.7109375 45 27 C47.8125 26.5 47.8125 26.5 50 27 C49.67 29.64 49.34 32.28 49 35 C48.34 35 47.68 35 47 35 C46.896875 35.78375 46.79375 36.5675 46.6875 37.375 C45.47625413 43.76156914 43.58678663 50.03049238 41 56 C39.35 56 37.7 56 36 56 C35.505 51.545 35.505 51.545 35 47 C31.01957092 46.00489273 27.8346834 45.89967886 23.75 45.9375 C21.85507812 45.95103516 21.85507812 45.95103516 19.921875 45.96484375 C18.95765625 45.97644531 17.9934375 45.98804688 17 46 C10.03313035 61.42727975 10.03313035 61.42727975 8 78 C10.97 78.66 13.94 79.32 17 80 C17 81.65 17 83.3 17 85 C3.8 85 -9.4 85 -23 85 C-23 83.35 -23 81.7 -23 80 C-18.05 79.01 -18.05 79.01 -13 78 C-12.608125 76.453125 -12.21625 74.90625 -11.8125 73.3125 C-10.62804152 68.93393311 -9.18337563 64.77348193 -7.5 60.5625 C-5.44068037 55.37424398 -4.00560345 50.26144313 -2.74609375 44.83203125 C-1.80379241 41.25523296 -0.41049255 37.97082268 1.02734375 34.5703125 C2.47564338 30.74307894 3.34370514 26.8114901 4.2734375 22.83203125 C4.92204157 20.30387023 5.71347696 17.97935156 6.6875 15.5625 C7.86677681 12.3616058 8.31404745 10.34983943 8 7 C5.36 6.01 2.72 5.02 0 4 C0 2.68 0 1.36 0 0 Z " transform="translate(251,768)" style="fill: #F6F625;"/><path d="M0 0 C7.16306473 0 13.39364104 0.11429879 20.3125 1.3125 C21.12283691 1.44712646 21.93317383 1.58175293 22.76806641 1.72045898 C41.06221295 4.82235319 41.06221295 4.82235319 49 8 C50.7615128 8.41659135 52.53313133 8.79285118 54.3125 9.125 C55.19550781 9.29257812 56.07851563 9.46015625 56.98828125 9.6328125 C57.65214844 9.75398437 58.31601562 9.87515625 59 10 C58.5472811 14.39032049 55.60470166 16.91585307 52.6875 19.9375 C51.58686474 21.09990561 50.48661496 22.26267631 49.38671875 23.42578125 C48.82259277 24.0182666 48.2584668 24.61075195 47.67724609 25.22119141 C46.08140002 26.91367095 44.51417754 28.62739755 42.95703125 30.35546875 C30.88907644 43.73048691 17.19643443 57.20674225 2 67 C1.34 67 0.68 67 0 67 C0 44.89 0 22.78 0 0 Z " transform="translate(621,726)" style="fill: #454748;"/><path d="M0 0 C0 20.13 0 40.26 0 61 C-7.62876913 61 -9.23990534 60.95814377 -14.1875 56.25 C-14.73792969 55.75483887 -15.28835938 55.25967773 -15.85546875 54.74951172 C-17.00994553 53.70556297 -18.15621328 52.65247003 -19.29443359 51.59082031 C-20.93631812 50.05939753 -22.5985291 48.55421456 -24.26953125 47.0546875 C-34.94686563 37.41527061 -45.36215697 27.52763545 -54.1953125 16.14453125 C-55.99823869 13.79933793 -55.99823869 13.79933793 -59 12 C-59 11.01 -59 10.02 -59 9 C-39.27951717 3.52329072 -20.52338727 0 0 0 Z " transform="translate(579,727)" style="fill: #444649;"/><path d="M0 0 C0 1.65 0 3.3 0 5 C-0.66 5 -1.32 5 -2 5 C-2.16537514 5.81967758 -2.16537514 5.81967758 -2.33409119 6.65591431 C-3.50751851 12.22506064 -5.06437821 17.52967777 -6.94140625 22.8984375 C-7.36725006 24.13617165 -7.36725006 24.13617165 -7.80169678 25.39891052 C-8.40626812 27.15457658 -9.01299454 28.90950181 -9.62173462 30.66372681 C-10.89177108 34.32395483 -12.15107107 37.9878451 -13.41081238 41.65162659 C-14.04214307 43.48760916 -14.67398752 45.32341515 -15.30635071 47.15904236 C-18.01653018 55.02988877 -20.68059609 62.91512986 -23.3125 70.8125 C-23.67867432 71.90675293 -24.04484863 73.00100586 -24.42211914 74.12841797 C-24.75332764 75.12373535 -25.08453613 76.11905273 -25.42578125 77.14453125 C-25.70848877 77.99378174 -25.99119629 78.84303223 -26.2824707 79.71801758 C-26.93692946 81.79941466 -27.49752951 83.8774058 -28 86 C-23.53403956 83.27685339 -20.20179058 80.29120262 -16.7109375 76.390625 C-15 75 -15 75 -11 75 C-11.39855832 81.37693314 -16.01122039 86.16037886 -20.5 90.3125 C-21.325 90.869375 -22.15 91.42625 -23 92 C-23.825 92.5775 -24.65 93.155 -25.5 93.75 C-31.40626724 95.85938116 -38.53254913 96.35395701 -44.4609375 94.0390625 C-46.3104738 91.58866162 -46.18284744 90.8727664 -45.9296875 87.88671875 C-45.14866993 83.02650739 -43.746085 78.45038466 -42.125 73.8125 C-41.86847656 73.04486328 -41.61195313 72.27722656 -41.34765625 71.48632812 C-40.21041779 68.1517621 -39.01934909 65.03836125 -37.4296875 61.88671875 C-35.82392747 58.64448742 -34.97301869 55.485262 -34 52 C-32.59153422 47.45460913 -31.14143744 42.92277972 -29.68652344 38.39208984 C-29.22675926 36.95753405 -28.76909479 35.52230372 -28.31347656 34.08642578 C-27.65103725 31.99883906 -26.98248541 29.91330036 -26.3125 27.828125 C-25.91675781 26.5896582 -25.52101563 25.35119141 -25.11328125 24.07519531 C-24 21 -24 21 -22 18 C-21.5 14.5 -21.5 14.5 -22 11 C-23.94009522 9.29467677 -23.94009522 9.29467677 -26 8 C-26 6.68 -26 5.36 -26 4 C-8.85106383 -0.76595745 -8.85106383 -0.76595745 0 0 Z " transform="translate(356,760)" style="fill: #F4F425;"/><path d="M0 0 C12.54 0 25.08 0 38 0 C38 8.99888504 38 8.99888504 37.55688477 12.13012695 C37.41157066 13.1871154 37.41157066 13.1871154 37.26332092 14.26545715 C37.15708908 14.99898911 37.05085724 15.73252106 36.94140625 16.48828125 C36.8327977 17.27212692 36.72418915 18.0559726 36.61228943 18.86357117 C36.26746737 21.34729354 35.91549424 23.82992707 35.5625 26.3125 C35.10208755 29.57896134 34.6450548 32.84587371 34.19140625 36.11328125 C34.08325592 36.89099884 33.97510559 37.66871643 33.86367798 38.47000122 C33.06533016 44.30268966 32.46050601 50.12987171 32 56 C26.555 56.495 26.555 56.495 21 57 C14.67629678 40.92374114 8.39987015 24.84534911 2.625 8.5625 C2.36178955 7.8214502 2.0985791 7.08040039 1.82739258 6.31689453 C0 1.12299366 0 1.12299366 0 0 Z " transform="translate(407,744)" style="fill: #5B5D48;"/><path d="M0 0 C1.5159375 0.2475 1.5159375 0.2475 3.0625 0.5 C4.68683191 3.00076998 5.13583427 4.08982529 4.6015625 7.078125 C3.75520833 9.55208333 2.90885417 12.02604167 2.0625 14.5 C6.0225 14.5 9.9825 14.5 14.0625 14.5 C14.0625 20.5 14.0625 20.5 13.0625 21.5 C10.70936445 21.57271741 8.35416332 21.58370868 6 21.5625 C4.70964844 21.55347656 3.41929687 21.54445313 2.08984375 21.53515625 C1.09082031 21.52355469 0.09179688 21.51195312 -0.9375 21.5 C-1.17210937 22.71558594 -1.40671875 23.93117188 -1.6484375 25.18359375 C-3.05361101 31.50687453 -5.32206475 37.49582143 -7.5625 43.5625 C-8.19285156 45.29016602 -8.19285156 45.29016602 -8.8359375 47.05273438 C-9.86478295 49.87036794 -10.89873455 52.68601184 -11.9375 55.5 C-8.55540294 54.75312023 -6.63852135 53.69457984 -3.9375 51.5 C-1.28041806 49.34112092 0.67113934 48.10560012 4.0625 47.5 C4.76953125 49.2578125 4.76953125 49.2578125 5.0625 51.5 C0.74705526 57.90189099 -6.2671992 61.93796862 -12.9375 65.5 C-13.59105469 65.87769531 -14.24460937 66.25539063 -14.91796875 66.64453125 C-17.38229172 67.68841274 -19.32958063 67.80041665 -22 67.8125 C-22.85722656 67.82925781 -23.71445312 67.84601563 -24.59765625 67.86328125 C-26.9375 67.5 -26.9375 67.5 -28.74609375 66.41796875 C-30.60595397 63.42389868 -30.15057596 60.9851114 -29.9375 57.5 C-29.25830017 54.64611832 -28.30511354 51.9186538 -27.3125 49.16015625 C-27.04614746 48.39319931 -26.77979492 47.62624237 -26.50537109 46.83604431 C-25.65950774 44.40785717 -24.79879415 41.98525109 -23.9375 39.5625 C-23.35838276 37.90855022 -22.78024751 36.25425625 -22.203125 34.59960938 C-20.79257778 30.56233628 -19.3686961 26.529997 -17.9375 22.5 C-20.9075 22.17 -23.8775 21.84 -26.9375 21.5 C-26.75 19.125 -26.75 19.125 -25.9375 16.5 C-21.99056898 14.1079206 -17.44646843 13.95853916 -12.9375 13.5 C-12.751875 12.84 -12.56625 12.18 -12.375 11.5 C-9.64294508 5.79832017 -6.52151263 0.82812859 0 0 Z " transform="translate(573.9375,787.5)" style="fill: #F6F625;"/><path d="M0 0 C2.5625 1.5 2.5625 1.5 4 4 C4.22706463 10.3578097 1.7578519 14.75707282 -1.16796875 20.28125 C-5.05608008 27.88926817 -7.90966907 36.04399141 -11 44 C-10.33613281 43.57847656 -9.67226563 43.15695312 -8.98828125 42.72265625 C-7.66376953 41.90087891 -7.66376953 41.90087891 -6.3125 41.0625 C-5.44238281 40.51722656 -4.57226562 39.97195313 -3.67578125 39.41015625 C-1.05375311 38.02832828 1.08310075 37.41519827 4 37 C3.33295776 42.20292944 1.45460385 43.99599847 -2.49609375 47.21875 C-9.52360406 52.2180397 -16.18854574 55.71949395 -24.94140625 55.50390625 C-27.4919962 54.87956829 -28.47018096 54.12311424 -30 52 C-29.905192 46.50113583 -28.51150941 42.39553952 -26.1640625 37.47265625 C-24.88099416 34.74721242 -23.75374646 31.9802372 -22.625 29.1875 C-20.05475289 22.96606072 -17.0853142 16.97978422 -14 11 C-15.46063143 11.78741859 -16.91843173 12.5800905 -18.375 13.375 C-19.18710937 13.81585937 -19.99921875 14.25671875 -20.8359375 14.7109375 C-23.10814302 15.9443893 -23.10814302 15.9443893 -25 18 C-27.125 17.625 -27.125 17.625 -29 17 C-28.48863213 12.97185659 -26.68167381 11.51988342 -23.5625 9.0625 C-16.37404703 3.57630551 -9.34408413 -1.44994409 0 0 Z " transform="translate(387,800)" style="fill: #F4F425;"/><path d="M0 0 C17.82 0 35.64 0 54 0 C52.88888889 14.44444444 52.88888889 14.44444444 51.5 21.26953125 C50.84808928 24.82957493 50.42486611 28.40752104 50 32 C49.74872449 34.08333654 49.4974201 36.16666959 49.24609375 38.25 C48.97635982 40.49997571 48.70683274 42.74997623 48.4375 45 C48.22963867 46.73443359 48.22963867 46.73443359 48.01757812 48.50390625 C47.67820506 51.33591594 47.33901707 54.16794767 47 57 C44.42103602 55.71051801 44.33957839 54.78708375 43.3359375 52.1262207 C43.02221191 51.3047908 42.70848633 50.4833609 42.38525391 49.63703918 C42.05187012 48.74232407 41.71848633 47.84760895 41.375 46.92578125 C41.02743652 46.00919235 40.67987305 45.09260345 40.32177734 44.14823914 C39.2078997 41.20544454 38.10401069 38.25900852 37 35.3125 C36.25582853 33.34416645 35.51104438 31.37606442 34.765625 29.40820312 C28.9222395 13.94328786 28.9222395 13.94328786 27 8 C26.03960815 8.03927612 26.03960815 8.03927612 25.05981445 8.0793457 C22.14429498 8.18361281 19.22916802 8.24841753 16.3125 8.3125 C14.80139648 8.3753418 14.80139648 8.3753418 13.25976562 8.43945312 C5.77421142 8.56297712 5.77421142 8.56297712 1.79296875 5.66796875 C0 3 0 3 0 0 Z " transform="translate(201,744)" style="fill: #5B5D48;"/><path d="M0 0 C-0.85722656 0.845625 -1.71445312 1.69125 -2.59765625 2.5625 C-11.61935205 11.4837903 -11.61935205 11.4837903 -20 21 C-20.44730469 21.54414551 -20.89460938 22.08829102 -21.35546875 22.64892578 C-27.26334657 29.86101699 -33.09051259 37.05438222 -38 45 C-43.9667103 44.59145136 -47.90417273 41.90004244 -52.75 38.6875 C-53.51699219 38.20087891 -54.28398437 37.71425781 -55.07421875 37.21289062 C-61.23855003 33.18819981 -61.23855003 33.18819981 -63 29 C-47.08935722 18.56224886 -30.44730935 9.38518224 -12.8125 2.1875 C-11.98137695 1.84380371 -11.15025391 1.50010742 -10.29394531 1.14599609 C-9.52276367 0.84387207 -8.75158203 0.54174805 -7.95703125 0.23046875 C-7.28647705 -0.03354736 -6.61592285 -0.29756348 -5.92504883 -0.56958008 C-3.63720895 -1.08111612 -2.20409896 -0.72548904 0 0 Z " transform="translate(514,288)" style="fill: #2E2F25;"/><path d="M0 0 C6.455059 2.05813476 12.73042899 4.43611914 19 7 C19.87398437 7.3403125 20.74796875 7.680625 21.6484375 8.03125 C24 9 24 9 26.375 10.4375 C29.07737521 12.12405219 29.07737521 12.12405219 32.5 13.5 C35.55061346 14.80740577 38.16535146 16.29921088 41 18 C43.31183371 19.06140793 45.64689237 20.03107333 48 21 C48 21.66 48 22.32 48 23 C48.78375 23.185625 49.5675 23.37125 50.375 23.5625 C55.47907213 25.5865286 59.60368497 28.75054976 64 32 C60.23255485 36.41990772 55.35332849 38.91904007 50.375 41.75 C49.50359375 42.25660156 48.6321875 42.76320313 47.734375 43.28515625 C41.26594087 47 41.26594087 47 39 47 C37.11182267 44.63902065 35.32717716 42.26348668 33.5625 39.8125 C25.93457248 29.44384172 17.72012575 19.77603259 9 10.3125 C8.44771729 9.71163574 7.89543457 9.11077148 7.32641602 8.49169922 C4.99240958 5.98816374 2.86036105 3.90690737 0 2 C0 1.34 0 0.68 0 0 Z " transform="translate(686,286)" style="fill: #2A2B25;"/><path d="M0 0 C0 5.61 0 11.22 0 17 C-7.4380895 17.12372705 -14.87557813 17.21440293 -22.31445312 17.2746582 C-24.84418169 17.29978044 -27.37383782 17.33388421 -29.90332031 17.37719727 C-33.54249963 17.43794555 -37.18071812 17.46623385 -40.8203125 17.48828125 C-41.94865509 17.51408768 -43.07699768 17.5398941 -44.23953247 17.56648254 C-53.01694322 17.56960784 -53.01694322 17.56960784 -56.76123047 14.65698242 C-59 12 -59 12 -59 9 C-39.27951717 3.52329072 -20.52338727 0 0 0 Z " transform="translate(579,727)" style="fill: #2A2B25;"/><path d="M0 0 C16.18145969 -0.30531056 32.83278644 0.90385307 48 7 C49.7615128 7.41659135 51.53313133 7.79285118 53.3125 8.125 C54.19550781 8.29257812 55.07851563 8.46015625 55.98828125 8.6328125 C56.65214844 8.75398437 57.31601562 8.87515625 58 9 C57.45393881 12.82242832 55.9483389 14.56484702 53 17 C50.50689697 17.48101807 50.50689697 17.48101807 47.68066406 17.45410156 C46.61986633 17.45379944 45.5590686 17.45349731 44.46612549 17.45318604 C43.32746033 17.43254089 42.18879517 17.41189575 41.015625 17.390625 C39.84489441 17.38496521 38.67416382 17.37930542 37.46795654 17.37347412 C33.728222 17.35108125 29.98944503 17.3008768 26.25 17.25 C23.71485758 17.22993889 21.17970015 17.21168744 18.64453125 17.1953125 C12.42931847 17.15120648 6.21482159 17.08215648 0 17 C0 11.39 0 5.78 0 0 Z " transform="translate(622,727)" style="fill: #292A25;"/><path d="M0 0 C0 0.66 0 1.32 0 2 C0.62648438 2.20496094 1.25296875 2.40992188 1.8984375 2.62109375 C2.71570313 2.89050781 3.53296875 3.15992188 4.375 3.4375 C5.59316406 3.83775391 5.59316406 3.83775391 6.8359375 4.24609375 C9 5 9 5 11 6 C11 6.66 11 7.32 11 8 C11.5775 8.12375 12.155 8.2475 12.75 8.375 C15.02335767 9.00648824 16.9253529 9.88858191 19 11 C19 11.66 19 12.32 19 13 C13.57752477 15.96202801 8.15356885 18.92128078 2.7265625 21.875 C-0.53696604 23.65220065 -3.79522664 25.43711842 -7.0390625 27.25 C-21.03582974 35 -21.03582974 35 -28 35 C-28.45930706 32.24415766 -28.64681871 30.66876382 -28 28 C-26.29468054 25.83538117 -24.38580492 24.08860184 -22.3515625 22.23046875 C-17.33614678 17.47332195 -13.10046421 11.86126227 -9.015625 6.296875 C-8.41234375 5.47703125 -7.8090625 4.6571875 -7.1875 3.8125 C-6.66542969 3.07644531 -6.14335938 2.34039063 -5.60546875 1.58203125 C-4 0 -4 0 0 0 Z " transform="translate(724,754)" style="fill: #444648;"/><path d="M0 0 C0.95310059 0.01047363 1.90620117 0.02094727 2.88818359 0.03173828 C4.43505859 0.04140625 4.43505859 0.04140625 6.01318359 0.05126953 C7.63353516 0.07640625 7.63353516 0.07640625 9.28662109 0.10205078 C10.37458984 0.11107422 11.46255859 0.12009766 12.58349609 0.12939453 C15.27629758 0.1530156 17.96898644 0.18888746 20.66162109 0.22705078 C20.66162109 7.15705078 20.66162109 14.08705078 20.66162109 21.22705078 C20.16662109 19.74205078 20.16662109 19.74205078 19.66162109 18.22705078 C18.94619141 18.42041016 18.23076172 18.61376953 17.49365234 18.81298828 C10.74709784 20.57599476 4.10196736 21.83768381 -2.81884766 22.69970703 C-3.65029297 22.87373047 -4.48173828 23.04775391 -5.33837891 23.22705078 C-5.66837891 23.88705078 -5.99837891 24.54705078 -6.33837891 25.22705078 C-9.30837891 24.23705078 -12.27837891 23.24705078 -15.33837891 22.22705078 C-13.91495371 17.18317456 -11.70063488 13.29329621 -8.83837891 8.97705078 C-8.23316406 8.04119141 -8.23316406 8.04119141 -7.61572266 7.08642578 C-3.19045986 0.30978572 -3.19045986 0.30978572 0 0 Z " transform="translate(656.33837890625,823.77294921875)" style="fill: #5E6048;"/><path d="M0 0 C5.4852071 0.60946746 5.4852071 0.60946746 7.8125 2.375 C10.41658218 5.93848088 10.50658376 9.780881 10 14 C7.9719957 23.37035722 4.61529035 33.12358355 -3.5859375 38.78515625 C-6 40 -6 40 -8.1875 39.8125 C-10 39 -10 39 -12 37 C-11.55070439 30.3699517 -8.68244288 23.62230512 -6.5625 17.375 C-6.26279297 16.47265625 -5.96308594 15.5703125 -5.65429688 14.640625 C-3.97742794 9.65003026 -2.15234983 4.80493998 0 0 Z " transform="translate(750,809)" style="fill: #474948;"/><path d="M0 0 C6.49232062 0.48998646 6.49232062 0.48998646 8.69921875 2.70703125 C11.73379224 8.0562644 10.5981632 14.61842429 9.15625 20.359375 C6.62439149 27.64702181 3.18332513 34.17513267 -3 39 C-5.5625 39.859375 -5.5625 39.859375 -8 40 C-8.99 39.34 -9.98 38.68 -11 38 C-11.5622598 33.31450165 -10.77144139 29.82690991 -8.98828125 25.5 C-7.68828267 22.21146604 -6.60006836 18.85912259 -5.5 15.5 C-3.78060705 10.28579599 -1.98508366 5.11942629 0 0 Z " transform="translate(824,809)" style="fill: #474948;"/><path d="M0 0 C5.23470108 1.74490036 10.44139658 5.50103205 14.0390625 9.6796875 C14.4140625 12.1796875 14.4140625 12.1796875 14.0390625 14.6796875 C12.16045417 17.1844986 11.07804376 17.66669375 8.0390625 18.6796875 C5.75054605 18.82588265 3.45705934 18.90060086 1.1640625 18.9296875 C-0.05023438 18.95546875 -1.26453125 18.98125 -2.515625 19.0078125 C-6.22902028 18.65415581 -8.02568027 17.93110344 -10.9609375 15.6796875 C-13.30643424 12.16144239 -13.54085153 10.82193056 -12.9609375 6.6796875 C-9.22355729 2.23523535 -6.06447845 -1.05805794 0 0 Z " transform="translate(422.9609375,862.3203125)" style="fill: #494B47;"/><path d="M0 0 C4.455 1.98 4.455 1.98 9 4 C8.64695801 5.02883301 8.29391602 6.05766602 7.93017578 7.11767578 C6.61415736 10.95303473 5.29848313 14.78851167 3.98291016 18.62402344 C3.41464398 20.28063093 2.84628581 21.93720687 2.27783203 23.59375 C1.4584138 25.98168685 0.6393319 28.36973884 -0.1796875 30.7578125 C-0.43185028 31.49242706 -0.68401306 32.22704163 -0.94381714 32.98391724 C-2.31498149 36.9830747 -3.66969471 40.98700438 -5 45 C-9.56454251 44.45660208 -12.9728176 43.20536179 -17 41 C-17 40.34 -17 39.68 -17 39 C-15.97267747 38.12366724 -14.90132698 37.29862789 -13.8125 36.5 C-6.22763355 30.18693944 -2.71168485 19.32188135 -1.6328125 9.73828125 C-1.46718055 7.61769041 -1.32457888 5.49510531 -1.2109375 3.37109375 C-1 1 -1 1 0 0 Z " transform="translate(479,779)" style="fill: #5B5D48;"/><path d="M0 0 C0 3.96 0 7.92 0 12 C-0.66 12 -1.32 12 -2 12 C-2.12117188 12.58007812 -2.24234375 13.16015625 -2.3671875 13.7578125 C-3.33735474 18.28028442 -4.43397783 22.63750966 -6 27 C-6.556875 26.855625 -7.11375 26.71125 -7.6875 26.5625 C-12.94136317 25.28453328 -17.59708529 24.80353037 -23 25 C-20.37343393 15.6964265 -10.75013328 0 0 0 Z " transform="translate(512,809)" style="fill: #616347;"/><path d="M0 0 C0.33 0 0.66 0 1 0 C1.11113581 7.79185542 0.99829769 15.5334699 0.5625 23.3125 C0.52326416 24.05943115 0.48402832 24.8063623 0.44360352 25.57592773 C0.1224619 30.8775381 0.1224619 30.8775381 -1 32 C-2.34267413 32.08631874 -3.68974322 32.10706473 -5.03515625 32.09765625 C-5.84404297 32.09443359 -6.65292969 32.09121094 -7.48632812 32.08789062 C-8.33646484 32.07951172 -9.18660156 32.07113281 -10.0625 32.0625 C-10.91650391 32.05798828 -11.77050781 32.05347656 -12.65039062 32.04882812 C-14.76695663 32.03700373 -16.88348685 32.01906769 -19 32 C-17.73676233 28.62927251 -16.29571698 25.66608619 -14.35546875 22.63671875 C-13.84306641 21.83169922 -13.33066406 21.02667969 -12.80273438 20.19726562 C-12.00319336 18.95493164 -12.00319336 18.95493164 -11.1875 17.6875 C-10.13916668 16.04567266 -9.09098808 14.40374653 -8.04296875 12.76171875 C-7.27992432 11.57328369 -7.27992432 11.57328369 -6.50146484 10.36083984 C-4.61914511 7.40115987 -2.79049536 4.40981469 -0.97387695 1.40942383 C-0.65249756 0.94431396 -0.33111816 0.4792041 0 0 Z " transform="translate(678,785)" style="fill: #656746;"/><path d="M0 0 C1.0209375 0.4640625 1.0209375 0.4640625 2.0625 0.9375 C2.20535714 9.50892857 2.20535714 9.50892857 1.0625 12.9375 C0.4025 12.9375 -0.2575 12.9375 -0.9375 12.9375 C-1.14375 13.741875 -1.35 14.54625 -1.5625 15.375 C-3.4261125 20.20345056 -6.2353594 25.2353594 -9.9375 28.9375 C-12.4375 29.0625 -12.4375 29.0625 -14.9375 28.9375 C-15.2675 28.6075 -15.5975 28.2775 -15.9375 27.9375 C-15.6323731 18.63112952 -12.81218561 9.59818229 -6.4375 2.625 C-3.45862415 -0.07358775 -3.45862415 -0.07358775 0 0 Z " transform="translate(436.9375,806.0625)" style="fill: #4C4E47;"/><path d="M0 0 C3.31033332 0.05953837 4.01535504 0.24064296 6.75 2.375 C8.67663535 6.39580422 8.62491691 9.18112477 7.1875 13.375 C5.16449782 16.31754862 3.78210468 18.01747951 0.21875 18.81640625 C-3.13082192 19.01013149 -5.43928711 18.59892774 -8.3125 16.875 C-10.39426493 13.40539178 -10.73667544 10.25653685 -9.8125 6.375 C-7.375 3.4375 -7.375 3.4375 -4.8125 1.375 C-3.8125 0.375 -3.8125 0.375 0 0 Z " transform="translate(389.8125,770.625)" style="fill: #F6F625;"/><path d="M0 0 C0.721875 0.268125 1.44375 0.53625 2.1875 0.8125 C2.33035714 9.38392857 2.33035714 9.38392857 1.1875 12.8125 C0.1975 12.8125 -0.7925 12.8125 -1.8125 12.8125 C-2.8025 10.5025 -3.7925 8.1925 -4.8125 5.8125 C-7.2875 7.2975 -7.2875 7.2975 -9.8125 8.8125 C-7.98776184 4.33359724 -5.22524493 -0.34834966 0 0 Z " transform="translate(436.8125,806.1875)" style="fill: #656744;"/><path d="M0 0 C4.2742558 1.5830577 6.26531794 4.50568404 9 8 C5.37 7.01 1.74 6.02 -2 5 C-1 1 -1 1 0 0 Z " transform="translate(505,785)" style="fill: #464848;"/><path d="M0 0 C7.26 0.33 14.52 0.66 22 1 C22 1.33 22 1.66 22 2 C16.72 2 11.44 2 6 2 C6.33 2.99 6.66 3.98 7 5 C3.34683329 3.75023244 2.21934164 3.32901247 0 0 Z " transform="translate(186,510)" style="fill: #C1C224;"/><path d="M0 0 C1.051875 0.12375 2.10375 0.2475 3.1875 0.375 C3.1875 0.705 3.1875 1.035 3.1875 1.375 C1.82625 1.74625 1.82625 1.74625 0.4375 2.125 C-2.91601489 3.41481342 -4.48958236 4.69471042 -6.8125 7.375 C-7.4725 7.045 -8.1325 6.715 -8.8125 6.375 C-4.75096154 0.46730769 -4.75096154 0.46730769 0 0 Z " transform="translate(573.8125,787.625)" style="fill: #DFE029;"/><path d="M0 0 C5.61 0.33 11.22 0.66 17 1 C17 1.33 17 1.66 17 2 C14.54203147 2.19436491 12.08390706 2.3807742 9.625 2.5625 C8.92632812 2.61857422 8.22765625 2.67464844 7.5078125 2.73242188 C2.2265625 3.11328125 2.2265625 3.11328125 0 2 C0 1.34 0 0.68 0 0 Z " transform="translate(160,692)" style="fill: #989825;"/><path d="M0 0 C0.66 0.33 1.32 0.66 2 1 C0.5459375 2.3303125 0.5459375 2.3303125 -0.9375 3.6875 C-3.60122242 6.32615209 -4.7731363 8.14331715 -5 12 C-5.33 12 -5.66 12 -6 12 C-6.3125 9.3125 -6.3125 9.3125 -6 6 C-3.5625 3.1875 -3.5625 3.1875 -1 1 C-0.67 0.67 -0.34 0.34 0 0 Z " transform="translate(416,863)" style="fill: #70723F;"/><path d="M0 0 C1.8871875 0.061875 1.8871875 0.061875 3.8125 0.125 C3.8125 0.455 3.8125 0.785 3.8125 1.125 C2.20375 1.24875 2.20375 1.24875 0.5625 1.375 C-3.52250175 2.19200035 -4.53641677 3.0811637 -7.1875 6.125 C-7.8475 6.125 -8.5075 6.125 -9.1875 6.125 C-7.20938974 1.56013016 -5.01716504 -0.16449721 0 0 Z " transform="translate(390.1875,770.875)" style="fill: #D3D42B;"/><path d="M0 0 C0 0.33 0 0.66 0 1 C-1.2375 1.28875 -2.475 1.5775 -3.75 1.875 C-6.72448742 2.61334794 -9.333856 3.44474933 -12 5 C-9.28085049 -1.02097391 -6.0998139 -0.0983841 0 0 Z " transform="translate(750,792)" style="fill: #CFCF2D;"/><path d="M0 0 C1.22589844 0.01353516 1.22589844 0.01353516 2.4765625 0.02734375 C3.41628906 0.04474609 3.41628906 0.04474609 4.375 0.0625 C4.375 0.3925 4.375 0.7225 4.375 1.0625 C3.76011719 1.19527344 3.14523437 1.32804688 2.51171875 1.46484375 C1.29935547 1.72974609 1.29935547 1.72974609 0.0625 2 C-1.13826172 2.26103516 -1.13826172 2.26103516 -2.36328125 2.52734375 C-4.770401 3.06136159 -4.770401 3.06136159 -7.625 4.0625 C-6.12685361 -0.43193917 -4.33905262 -0.06198647 0 0 Z " transform="translate(820.625,791.9375)" style="fill: #BABB30;"/></svg>